<?xml version="1.0" standalone="no"?>
<!DOCTYPE svg PUBLIC "-//W3C//DTD SVG 20010904//EN"
 "http://www.w3.org/TR/2001/REC-SVG-20010904/DTD/svg10.dtd">
<svg version="1.0" xmlns="http://www.w3.org/2000/svg"
 width="1420.000000pt" height="906.000000pt" viewBox="0 0 1420.000000 906.000000"
 preserveAspectRatio="xMidYMid meet">

<g transform="translate(0.000000,906.000000) scale(0.100000,-0.100000)"
fill="#000000" stroke="none">
<path d="M300 4515 l0 -4515 6730 0 6730 0 0 4515 0 4515 -6730 0 -6730 0 0
-4515z m13350 -10 l0 -4415 -6620 0 -6620 0 0 4415 0 4415 6620 0 6620 0 0
-4415z"/>
<path d="M530 4505 l0 -4295 6500 0 6500 0 0 4295 0 4295 -6500 0 -6500 0 0
-4295z m12880 0 l0 -4175 -6380 0 -6380 0 0 4175 0 4175 6380 0 6380 0 0
-4175z"/>
<path d="M760 8020 l0 -550 6270 0 6270 0 0 550 0 550 -6270 0 -6270 0 0 -550z
m4074 260 c31 -11 52 -51 42 -77 -7 -16 -10 -14 -34 15 -20 23 -35 32 -57 32
-40 0 -55 -16 -55 -56 0 -32 1 -33 48 -36 34 -2 47 -7 47 -18 0 -11 -13 -16
-47 -18 l-47 -3 -3 -127 c-3 -111 -5 -127 -20 -130 -16 -3 -18 8 -18 127 l0
130 -32 3 c-41 4 -45 32 -7 36 23 3 28 9 34 47 10 72 74 104 149 75z m2014
-208 c2 -177 0 -212 -12 -212 -8 0 -17 7 -20 15 -5 14 -9 14 -35 0 -59 -30
-156 -12 -181 34 -5 11 -10 59 -10 106 0 82 1 88 29 116 18 17 41 29 58 30 56
2 88 -3 111 -17 l22 -14 0 73 c0 41 3 77 7 81 23 23 28 -13 31 -212z m1942
207 c0 -6 -14 -27 -31 -47 -54 -62 -74 -117 -73 -207 0 -90 20 -147 73 -207
36 -41 39 -58 12 -58 -24 0 -74 62 -103 127 -33 71 -33 220 0 281 42 79 122
151 122 111z m556 -26 c63 -69 79 -115 79 -228 -1 -80 -5 -109 -22 -146 -27
-59 -80 -119 -104 -119 -27 0 -24 22 7 51 45 42 77 117 82 195 6 91 -15 156
-69 218 -37 42 -43 66 -17 66 6 0 26 -17 44 -37z m-3189 -3 c32 -19 48 -52 41
-87 -5 -28 -21 -19 -43 23 -19 38 -22 39 -76 42 -51 3 -59 0 -78 -24 -18 -23
-21 -40 -21 -131 0 -139 18 -172 95 -173 48 0 80 20 89 55 8 33 36 33 36 0 0
-77 -103 -119 -194 -81 -59 25 -66 45 -66 194 l0 134 34 34 c31 31 39 34 93
34 40 0 68 -6 90 -20z m1330 -15 c25 -25 34 -41 31 -61 -5 -41 -25 -40 -43 2
-20 48 -29 54 -87 54 -79 0 -88 -16 -88 -160 0 -115 1 -122 25 -145 44 -45
141 -27 152 27 4 19 12 28 24 28 26 0 25 -40 -1 -72 -56 -72 -196 -58 -237 23
-16 31 -17 224 -2 268 17 47 61 71 133 71 53 0 61 -3 93 -35z m1569 -17 c43
-52 57 -95 50 -155 -3 -29 -4 -53 -1 -53 2 0 13 9 24 21 l19 21 22 -43 c27
-53 23 -104 -15 -161 -29 -43 -43 -46 -24 -5 16 36 5 57 -30 57 -38 0 -55 29
-48 84 2 23 2 52 -2 65 -6 22 -10 18 -48 -45 -53 -86 -67 -127 -59 -166 5 -27
4 -29 -11 -17 -9 8 -25 33 -35 57 -24 53 -18 88 28 164 47 78 84 159 84 186 0
31 13 28 46 -10z m-3860 -84 c18 -26 15 -59 -4 -59 -7 0 -18 11 -25 25 -18 36
-43 36 -77 1 -30 -29 -31 -32 -28 -113 l3 -83 45 -5 c31 -3 45 -10 45 -20 0
-12 -18 -16 -94 -18 -59 -2 -98 1 -107 9 -21 17 -7 29 37 29 l39 0 0 110 0
110 -40 0 c-33 0 -40 3 -40 20 0 17 7 20 50 20 36 0 52 -4 57 -15 5 -14 8 -14
27 -1 46 30 89 26 112 -10z m1284 12 c13 -6 30 -22 37 -36 18 -35 17 -164 -2
-199 -37 -73 -213 -67 -244 7 -20 47 -11 184 13 211 34 37 133 46 196 17z
m1294 10 c43 -18 56 -55 56 -162 0 -67 3 -85 17 -92 10 -6 14 -16 10 -26 -6
-15 -10 -15 -42 -1 -33 13 -39 13 -61 -1 -38 -26 -121 -14 -151 20 -40 46 -27
103 29 132 24 12 48 15 95 11 l63 -5 0 28 c0 35 -29 61 -77 66 -46 6 -87 -14
-91 -44 -5 -31 -42 -30 -42 1 0 69 107 109 194 73z m554 -2 c63 18 118 7 150
-29 19 -23 22 -37 22 -111 0 -47 -5 -94 -10 -105 -25 -45 -125 -64 -182 -35
l-27 14 -3 -71 c-2 -56 -6 -72 -18 -72 -13 0 -15 30 -18 200 -3 214 0 242 23
212 12 -17 17 -17 63 -3z m-2828 -22 c33 -33 49 -95 30 -117 -10 -12 -37 -15
-118 -15 l-105 0 6 -36 c3 -20 14 -42 24 -50 28 -21 122 -18 158 6 38 25 47
25 43 -1 -5 -38 -63 -61 -141 -57 -57 3 -71 8 -95 31 -25 26 -27 33 -27 116 0
75 3 92 20 111 28 31 51 39 118 39 51 1 62 -2 87 -27z m330 0 c33 -33 49 -95
30 -117 -10 -12 -37 -15 -116 -15 l-104 0 0 -30 c0 -49 30 -70 99 -70 43 0 65
5 84 20 33 26 49 25 45 -1 -5 -38 -63 -61 -141 -57 -57 3 -71 8 -95 31 -25 26
-27 33 -27 118 0 90 0 91 33 120 29 26 40 29 98 29 59 0 68 -3 94 -28z m1294
18 c33 -12 58 -62 54 -108 l-3 -37 -107 -3 -108 -3 0 -34 c0 -24 7 -39 22 -49
33 -23 112 -20 159 6 41 23 60 18 43 -10 -29 -48 -153 -69 -215 -37 -39 21
-49 50 -49 141 0 85 8 107 48 128 31 17 118 21 156 6z m809 -2 c4 -10 7 -10
18 0 18 17 78 15 85 -3 5 -13 8 -13 27 0 28 20 76 19 99 -2 16 -14 18 -33 18
-150 0 -123 -2 -134 -17 -131 -16 3 -18 19 -21 130 -3 138 -11 154 -58 123
-23 -15 -24 -20 -24 -136 0 -109 -2 -120 -17 -117 -16 3 -19 19 -23 128 -5
121 -6 125 -28 128 -45 7 -52 -11 -52 -140 0 -108 -2 -119 -17 -116 -16 3 -18
19 -21 138 -1 74 0 140 2 147 7 17 23 17 29 1z"/>
<path d="M6650 8100 c-28 -28 -29 -158 -2 -183 24 -22 110 -23 140 -1 20 13
22 24 22 94 0 70 -2 81 -22 94 -33 23 -113 21 -138 -4z"/>
<path d="M6346 8120 c-41 -13 -46 -25 -46 -107 0 -95 16 -113 95 -113 80 0 95
18 95 113 0 58 -4 77 -18 90 -22 20 -88 29 -126 17z"/>
<path d="M7637 7982 c-39 -42 -8 -82 61 -82 55 1 92 26 92 63 0 30 -16 37 -84
37 -39 0 -57 -5 -69 -18z"/>
<path d="M8302 8104 c-20 -13 -22 -24 -22 -95 l0 -80 35 -15 c49 -20 108 -18
128 4 23 26 24 164 1 186 -21 21 -112 21 -142 0z"/>
<path d="M5354 8116 c-30 -13 -44 -33 -44 -62 0 -11 20 -14 95 -14 52 0 95 4
95 9 0 29 -22 60 -51 70 -41 14 -57 13 -95 -3z"/>
<path d="M5684 8116 c-30 -13 -44 -33 -44 -62 0 -11 20 -14 95 -14 54 0 95 4
95 10 0 26 -26 60 -53 70 -38 13 -55 12 -93 -4z"/>
<path d="M7015 8123 c-31 -8 -55 -34 -55 -60 0 -22 2 -23 90 -23 88 0 90 1 90
23 0 13 -8 31 -17 40 -20 17 -77 28 -108 20z"/>
<path d="M5990 6920 c0 -5 14 -10 30 -10 l30 0 0 -95 c0 -78 3 -95 15 -95 12
0 15 17 15 95 l0 95 30 0 c17 0 30 5 30 10 0 6 -32 10 -75 10 -43 0 -75 -4
-75 -10z"/>
<path d="M6170 6825 c0 -110 17 -147 22 -49 3 60 20 83 52 71 12 -5 16 -20 16
-67 0 -33 4 -60 10 -60 14 0 13 123 -2 138 -7 7 -21 12 -33 12 -12 0 -26 -5
-33 -12 -9 -9 -12 -3 -12 30 0 23 -4 42 -10 42 -6 0 -10 -42 -10 -105z"/>
<path d="M6320 6910 c0 -11 7 -20 15 -20 8 0 15 9 15 20 0 11 -7 20 -15 20 -8
0 -15 -9 -15 -20z"/>
<path d="M7050 6910 c0 -13 5 -20 13 -17 6 2 12 10 12 17 0 7 -6 15 -12 18 -8
2 -13 -5 -13 -18z"/>
<path d="M7148 6919 c-10 -5 -18 -19 -18 -29 0 -11 -7 -20 -15 -20 -8 0 -15
-4 -15 -10 0 -5 7 -10 15 -10 12 0 15 -14 15 -65 0 -37 4 -65 10 -65 6 0 10
28 10 65 l0 65 30 0 30 0 0 -65 c0 -37 4 -65 10 -65 6 0 10 32 10 75 l0 75
-40 0 c-49 0 -57 27 -10 37 17 3 30 9 30 14 0 12 -41 11 -62 -2z"/>
<path d="M7690 6825 c0 -87 3 -105 15 -105 12 0 15 13 15 60 0 56 2 60 26 66
34 9 44 -7 44 -73 0 -29 5 -53 10 -53 14 0 13 123 -2 138 -7 7 -21 12 -33 12
-12 0 -26 -5 -33 -12 -9 -9 -12 -3 -12 30 0 31 -4 42 -15 42 -12 0 -15 -18
-15 -105z"/>
<path d="M6960 6900 c0 -10 -8 -24 -17 -29 -13 -8 -15 -13 -6 -19 6 -4 13 -32
15 -61 3 -59 21 -80 54 -66 18 8 17 9 -3 12 -21 4 -23 10 -23 59 0 47 2 54 20
54 11 0 20 5 20 10 0 6 -9 10 -20 10 -15 0 -20 7 -20 25 0 14 -4 25 -10 25 -5
0 -10 -9 -10 -20z"/>
<path d="M7608 6914 c-5 -4 -8 -15 -8 -25 0 -9 -6 -20 -12 -23 -10 -5 -10 -7
0 -12 7 -3 12 -26 12 -59 0 -59 16 -81 50 -70 24 7 18 20 -8 20 -13 0 -18 11
-20 53 -3 47 -1 52 17 52 12 0 21 5 21 10 0 6 -9 10 -19 10 -14 0 -21 8 -23
26 -2 14 -6 22 -10 18z"/>
<path d="M8000 6895 c0 -16 -6 -25 -15 -25 -8 0 -15 -4 -15 -10 0 -5 5 -10 10
-10 6 0 10 -21 10 -46 0 -25 5 -54 10 -65 11 -20 45 -26 55 -9 3 6 -3 10 -14
10 -19 0 -21 6 -21 55 0 48 2 55 20 55 11 0 20 5 20 10 0 6 -9 10 -20 10 -15
0 -20 7 -20 25 0 14 -4 25 -10 25 -5 0 -10 -11 -10 -25z"/>
<path d="M6320 6795 c0 -60 3 -75 15 -75 12 0 15 15 15 75 0 60 -3 75 -15 75
-12 0 -15 -15 -15 -75z"/>
<path d="M6396 6855 c-25 -26 -19 -43 24 -65 28 -14 38 -25 33 -36 -4 -12 -14
-15 -39 -11 -39 7 -47 -9 -10 -19 33 -8 64 3 71 26 8 27 -1 39 -41 56 -24 10
-32 19 -27 30 4 12 14 14 35 10 21 -4 28 -2 26 7 -7 19 -53 20 -72 2z"/>
<path d="M6571 6844 c-12 -15 -21 -35 -21 -45 0 -30 22 -68 42 -75 24 -7 68 3
68 16 0 6 -11 8 -25 4 -34 -8 -55 11 -55 51 0 40 21 59 55 51 27 -7 35 8 9 18
-31 12 -53 6 -73 -20z"/>
<path d="M6699 6849 c-17 -17 -20 -29 -16 -62 8 -62 58 -87 103 -52 18 14 17
15 -17 9 -26 -4 -40 -1 -52 11 -27 27 -20 35 33 35 46 0 50 2 50 23 0 52 -63
74 -101 36z m79 -21 c3 -15 -4 -18 -38 -18 -38 0 -40 1 -30 21 14 25 63 23 68
-3z"/>
<path d="M6830 6795 c0 -60 3 -75 15 -75 11 0 15 13 15 53 0 55 12 77 42 77
10 0 18 5 18 10 0 13 -33 13 -47 -1 -8 -8 -13 -8 -17 0 -17 27 -26 5 -26 -64z"/>
<path d="M7050 6795 c0 -43 4 -75 10 -75 6 0 10 32 10 75 0 43 -4 75 -10 75
-6 0 -10 -32 -10 -75z"/>
<path d="M7289 6851 c-17 -14 -23 -28 -22 -57 2 -56 46 -87 97 -68 28 11 17
24 -14 18 -32 -7 -60 8 -60 32 0 10 14 14 50 14 43 0 50 3 50 20 0 25 -34 60
-59 60 -10 0 -29 -8 -42 -19z m69 -13 c21 -21 13 -28 -28 -28 -22 0 -40 4 -40
8 0 14 23 32 40 32 9 0 21 -5 28 -12z"/>
<path d="M7426 6855 c-25 -26 -19 -43 24 -65 28 -14 38 -25 33 -36 -4 -12 -14
-15 -39 -11 -39 7 -47 -9 -10 -19 33 -8 64 3 71 26 8 27 -1 39 -41 56 -24 10
-32 19 -27 30 4 12 14 14 35 10 21 -4 28 -2 26 7 -7 19 -53 20 -72 2z"/>
<path d="M7859 6853 c-13 -15 -11 -16 14 -9 31 7 57 -7 57 -30 0 -8 -10 -14
-23 -14 -27 0 -67 -26 -67 -44 0 -27 29 -41 61 -29 16 6 29 7 29 2 0 -5 5 -9
10 -9 17 0 12 116 -6 134 -20 21 -58 20 -75 -1z m71 -88 c0 -19 -48 -31 -63
-16 -9 9 -8 14 3 21 23 15 60 12 60 -5z"/>
<path d="M5940 6391 c-25 -47 36 -83 64 -38 8 12 8 22 0 35 -16 25 -51 27 -64
3z"/>
<path d="M6070 6225 l0 -185 30 0 30 0 0 95 c0 85 2 95 20 105 12 6 33 10 48
8 l27 -3 3 -102 3 -103 29 0 30 0 0 105 c0 99 -2 107 -25 130 -28 29 -63 32
-105 10 l-30 -16 0 71 0 70 -30 0 -30 0 0 -185z"/>
<path d="M7690 6225 l0 -185 30 0 30 0 0 89 c0 100 10 121 61 121 39 0 49 -27
49 -131 l0 -79 31 0 31 0 -4 106 c-3 103 -5 107 -32 131 -29 25 -55 27 -113 8
-22 -7 -23 -5 -23 59 l0 66 -30 0 -30 0 0 -185z"/>
<path d="M5190 6220 l0 -180 30 0 30 0 0 75 0 75 70 0 c68 0 70 1 70 25 0 24
-2 25 -70 25 l-70 0 0 55 0 55 80 0 c79 0 80 0 80 25 l0 25 -110 0 -110 0 0
-180z"/>
<path d="M6450 6274 c0 -153 11 -183 77 -215 51 -24 116 -23 158 5 47 31 59
70 63 209 l4 127 -36 0 -36 0 0 -125 c0 -120 -1 -127 -25 -150 -16 -17 -35
-25 -57 -25 -70 1 -88 39 -88 191 l0 109 -30 0 -30 0 0 -126z"/>
<path d="M7110 6220 l0 -180 35 0 35 0 0 70 c0 67 1 70 24 70 18 0 34 -16 70
-70 43 -65 49 -70 82 -70 l35 0 -18 31 c-10 16 -35 52 -55 79 -34 45 -35 49
-18 55 59 19 80 113 35 157 -30 30 -63 38 -156 38 l-69 0 0 -180z m179 98 c14
-25 14 -29 -5 -55 -16 -21 -31 -29 -62 -31 l-42 -3 0 61 0 61 47 -3 c39 -2 50
-8 62 -30z"/>
<path d="M5504 6286 c-39 -17 -48 -30 -30 -46 11 -8 20 -9 36 0 11 6 35 10 53
8 27 -2 33 -8 35 -30 3 -24 0 -28 -21 -28 -38 0 -90 -20 -109 -42 -58 -65 37
-143 111 -92 22 16 24 16 33 0 5 -9 18 -16 28 -16 19 0 20 8 20 101 0 98 -1
101 -29 130 -33 33 -75 37 -127 15z m96 -154 c0 -27 -20 -42 -57 -42 -26 0
-33 4 -33 20 0 23 25 39 63 40 19 0 27 -5 27 -18z"/>
<path d="M5755 6290 c-33 -13 -47 -36 -43 -72 3 -29 10 -36 58 -60 65 -31 75
-61 23 -66 -18 -2 -41 2 -52 8 -16 8 -22 7 -31 -10 -9 -16 -6 -22 19 -35 49
-25 98 -20 132 14 17 17 29 40 29 55 0 26 -41 66 -69 66 -27 0 -61 29 -54 46
5 13 16 15 54 11 34 -4 51 -2 59 8 24 29 -73 57 -125 35z"/>
<path d="M5940 6170 l0 -130 30 0 30 0 0 130 0 130 -30 0 -30 0 0 -130z"/>
<path d="M6810 6170 l0 -130 30 0 30 0 0 83 c0 93 13 117 62 117 25 0 38 16
38 46 0 21 -43 17 -73 -6 -14 -11 -28 -20 -31 -20 -3 0 -6 9 -6 20 0 15 -7 20
-25 20 l-25 0 0 -130z"/>
<path d="M7473 6281 c-41 -26 -55 -52 -55 -106 0 -107 87 -163 187 -121 19 8
35 19 35 24 0 18 -25 30 -45 21 -55 -22 -115 1 -115 44 0 15 12 17 80 17 91 0
99 7 81 63 -16 48 -43 69 -93 74 -31 3 -52 -1 -75 -16z m105 -43 c26 -26 13
-38 -43 -38 -38 0 -55 4 -55 13 0 22 22 37 55 37 17 0 36 -5 43 -12z"/>
<path d="M7980 6170 l0 -130 30 0 30 0 0 99 c0 104 3 111 50 111 30 0 40 -32
40 -124 l0 -86 30 0 30 0 0 93 c0 99 7 117 47 117 33 0 43 -29 43 -124 l0 -86
31 0 31 0 -4 106 c-3 102 -5 107 -31 130 -34 29 -71 30 -114 5 -31 -19 -31
-19 -49 0 -20 23 -49 24 -86 5 -24 -13 -28 -13 -28 0 0 8 -10 14 -25 14 l-25
0 0 -130z"/>
<path d="M8433 6285 c-35 -15 -44 -42 -18 -51 8 -4 22 -1 29 6 8 6 30 10 48 8
28 -2 34 -7 36 -30 3 -25 0 -28 -25 -28 -48 -1 -111 -35 -119 -65 -16 -65 56
-108 120 -71 27 16 31 16 42 2 6 -9 19 -16 28 -16 14 0 16 14 16 103 -1 64 -5
108 -13 118 -30 40 -87 49 -144 24z m97 -160 c0 -26 -29 -40 -67 -33 -27 5
-28 37 -1 47 44 18 68 13 68 -14z"/>
<path d="M8650 6170 l0 -130 30 0 30 0 0 95 c0 85 2 95 20 105 12 6 33 10 48
8 l27 -3 3 -102 3 -103 29 0 30 0 0 105 c0 99 -2 107 -25 130 -28 28 -66 32
-108 10 -24 -12 -29 -12 -34 0 -3 8 -16 15 -29 15 l-24 0 0 -130z"/>
<path d="M6372 5748 c-7 -7 -12 -20 -12 -30 0 -10 -7 -18 -15 -18 -8 0 -15 -4
-15 -10 0 -5 7 -10 15 -10 12 0 15 -14 15 -65 0 -37 4 -65 10 -65 6 0 10 28
10 65 0 58 2 65 20 65 11 0 20 5 20 10 0 6 -9 10 -20 10 -12 0 -20 7 -20 16 0
9 9 18 20 21 11 3 20 9 20 14 0 13 -34 11 -48 -3z"/>
<path d="M6600 5655 c0 -63 4 -105 10 -105 6 0 10 42 10 105 0 63 -4 105 -10
105 -6 0 -10 -42 -10 -105z"/>
<path d="M6670 5655 c0 -63 4 -105 10 -105 6 0 10 42 10 105 0 63 -4 105 -10
105 -6 0 -10 -42 -10 -105z"/>
<path d="M7590 5655 c0 -87 3 -105 15 -105 12 0 15 18 15 105 0 87 -3 105 -15
105 -12 0 -15 -18 -15 -105z"/>
<path d="M8140 5725 c0 -33 -1 -34 -29 -29 -60 12 -95 -74 -52 -127 17 -22 22
-23 50 -12 17 6 31 7 31 2 0 -5 5 -9 10 -9 6 0 10 42 10 105 0 63 -4 105 -10
105 -5 0 -10 -16 -10 -35z m-2 -88 c4 -42 -11 -67 -39 -67 -24 0 -42 36 -34
68 8 32 22 43 50 40 15 -2 21 -12 23 -41z"/>
<path d="M8360 5655 c0 -110 17 -147 22 -49 3 60 20 83 52 71 12 -5 16 -20 16
-67 0 -47 3 -60 15 -60 24 0 20 101 -4 131 -17 22 -22 23 -50 12 l-31 -11 0
39 c0 21 -4 39 -10 39 -6 0 -10 -42 -10 -105z"/>
<path d="M7818 5744 c-5 -4 -8 -15 -8 -25 0 -9 -6 -20 -12 -23 -10 -5 -10 -7
0 -12 7 -3 12 -26 12 -59 0 -59 16 -81 50 -70 24 7 18 20 -8 20 -13 0 -18 11
-20 53 -3 47 -1 52 17 52 12 0 21 5 21 10 0 6 -9 10 -19 10 -14 0 -21 8 -23
26 -2 14 -6 22 -10 18z"/>
<path d="M8270 5725 c0 -16 -6 -25 -15 -25 -8 0 -15 -4 -15 -10 0 -5 5 -10 10
-10 6 0 10 -21 10 -46 0 -25 5 -54 10 -65 11 -20 45 -26 55 -9 3 6 -3 10 -14
10 -19 0 -21 6 -21 55 0 48 2 55 20 55 11 0 20 5 20 10 0 6 -9 10 -20 10 -15
0 -20 7 -20 25 0 14 -4 25 -10 25 -5 0 -10 -11 -10 -25z"/>
<path d="M5440 5685 c-19 -23 -8 -49 28 -64 43 -19 39 -47 -6 -45 -39 2 -42
-13 -5 -22 34 -9 57 6 61 39 3 22 -3 29 -33 41 -44 19 -42 42 4 40 33 -2 42
10 15 20 -26 10 -51 7 -64 -9z"/>
<path d="M5550 5646 c0 -38 6 -61 19 -77 17 -22 22 -23 50 -12 17 6 31 7 31 2
0 -5 5 -9 10 -9 6 0 10 32 10 75 0 87 -18 102 -22 19 -3 -60 -20 -83 -52 -71
-12 5 -16 20 -16 67 0 47 -3 60 -15 60 -11 0 -15 -13 -15 -54z"/>
<path d="M5720 5680 c-12 -12 -20 -33 -20 -55 0 -56 44 -88 94 -69 27 10 18
24 -11 18 -40 -7 -57 9 -57 51 0 42 17 58 57 51 29 -6 38 8 11 18 -29 11 -54
6 -74 -14z"/>
<path d="M5850 5680 c-12 -12 -20 -33 -20 -55 0 -56 44 -88 94 -69 27 10 18
24 -11 18 -40 -7 -57 9 -57 51 0 42 17 58 57 51 29 -6 38 8 11 18 -29 11 -54
6 -74 -14z"/>
<path d="M5980 5680 c-12 -12 -20 -33 -20 -55 0 -62 60 -96 106 -60 18 14 16
15 -19 9 -39 -7 -67 7 -67 32 0 10 14 14 50 14 43 0 50 3 50 20 0 11 -9 29
-20 40 -11 11 -29 20 -40 20 -11 0 -29 -9 -40 -20z m68 -12 c21 -21 13 -28
-28 -28 -22 0 -40 4 -40 8 0 14 23 32 40 32 9 0 21 -5 28 -12z"/>
<path d="M6116 5685 c-26 -26 -18 -44 29 -66 44 -21 39 -45 -9 -42 -33 2 -36
1 -26 -12 26 -32 95 -5 88 34 -2 9 -18 23 -35 31 -40 18 -40 45 0 45 15 -1 26
4 24 10 -6 17 -53 17 -71 0z"/>
<path d="M6236 5685 c-25 -26 -19 -43 24 -65 28 -14 38 -25 33 -36 -4 -12 -14
-15 -39 -11 -39 7 -47 -9 -10 -19 33 -8 64 3 71 26 8 27 -1 39 -41 56 -24 10
-32 19 -27 30 4 12 14 14 35 10 21 -4 28 -2 26 7 -7 19 -53 20 -72 2z"/>
<path d="M6440 5637 c0 -36 5 -68 12 -75 15 -15 55 -16 63 -2 5 8 11 7 21 -1
12 -10 14 0 14 65 0 44 -4 76 -10 76 -6 0 -10 -27 -10 -60 0 -56 -2 -60 -26
-66 -34 -9 -44 7 -44 74 0 28 -4 52 -10 52 -6 0 -10 -28 -10 -63z"/>
<path d="M6720 5697 c0 -1 13 -34 29 -72 27 -64 28 -71 15 -97 -11 -22 -12
-28 -2 -28 7 0 30 42 51 93 40 99 42 107 27 107 -5 0 -17 -22 -27 -50 -10 -27
-21 -50 -24 -50 -4 0 -15 23 -25 50 -10 28 -24 50 -31 50 -7 0 -13 -1 -13 -3z"/>
<path d="M6940 5680 c-12 -12 -20 -33 -20 -55 0 -56 44 -88 94 -69 27 10 18
24 -11 18 -40 -7 -57 9 -57 51 0 42 17 58 57 51 29 -6 38 8 11 18 -29 11 -54
6 -74 -14z"/>
<path d="M7070 5680 c-43 -43 -13 -130 45 -130 36 0 65 33 65 75 0 42 -29 75
-65 75 -14 0 -34 -9 -45 -20z m70 -9 c8 -6 14 -25 14 -46 0 -59 -59 -76 -78
-23 -19 53 21 95 64 69z"/>
<path d="M7210 5625 c0 -43 4 -75 10 -75 6 0 10 24 10 54 0 56 17 83 45 72 11
-4 15 -21 15 -66 0 -46 3 -60 15 -60 10 0 15 16 17 63 3 59 4 62 28 62 24 0
25 -3 28 -62 2 -35 7 -63 12 -63 14 0 12 124 -2 138 -15 15 -51 15 -66 0 -8
-8 -15 -8 -27 2 -12 10 -21 10 -40 2 -15 -7 -25 -8 -25 -2 0 6 -4 10 -10 10
-6 0 -10 -32 -10 -75z"/>
<path d="M7440 5600 c0 -60 4 -100 10 -100 6 0 10 13 10 30 0 27 2 29 29 24
60 -12 95 74 52 127 -17 22 -22 23 -50 12 -17 -6 -31 -7 -31 -2 0 5 -4 9 -10
9 -6 0 -10 -40 -10 -100z m90 54 c14 -36 2 -73 -26 -80 -33 -8 -44 2 -44 45 0
61 51 87 70 35z"/>
<path d="M7669 5679 c-17 -17 -20 -29 -16 -62 8 -62 58 -87 103 -52 18 14 17
15 -17 9 -26 -4 -40 -1 -52 11 -27 27 -20 35 33 35 46 0 50 2 50 23 0 52 -63
74 -101 36z m79 -21 c3 -15 -4 -18 -38 -18 -38 0 -40 1 -30 21 14 25 63 23 68
-3z"/>
<path d="M7919 5681 c-17 -14 -23 -28 -22 -57 2 -56 46 -87 97 -68 28 11 17
24 -14 18 -32 -7 -60 8 -60 32 0 10 14 14 50 14 43 0 50 3 50 20 0 25 -34 60
-59 60 -10 0 -29 -8 -42 -19z m69 -13 c21 -21 13 -28 -28 -28 -22 0 -40 4 -40
8 0 14 23 32 40 32 9 0 21 -5 28 -12z"/>
<path d="M8521 5674 c-12 -15 -21 -37 -21 -49 0 -51 55 -88 104 -69 28 11 17
21 -20 20 -27 -1 -40 5 -51 22 -15 22 -15 22 36 22 47 0 51 2 51 24 0 56 -64
75 -99 30z m77 -16 c3 -15 -4 -18 -32 -18 -24 0 -36 5 -36 14 0 30 63 33 68 4z"/>
<path d="M4072 5228 c-23 -23 -7 -68 24 -68 14 0 44 27 44 40 0 13 -30 40 -44
40 -6 0 -17 -5 -24 -12z"/>
<path d="M5120 5055 l0 -185 30 0 30 0 0 185 0 185 -30 0 -30 0 0 -185z"/>
<path d="M6003 5233 c-22 -8 -16 -61 7 -68 39 -12 66 35 38 63 -13 13 -24 14
-45 5z"/>
<path d="M6310 5055 l0 -185 30 0 30 0 0 89 c0 100 10 121 61 121 39 0 49 -27
49 -131 l0 -79 31 0 31 0 -4 106 c-3 103 -5 107 -32 131 -29 25 -55 27 -113 8
-22 -7 -23 -5 -23 59 l0 66 -30 0 -30 0 0 -185z"/>
<path d="M8020 5175 c0 -62 -1 -65 -19 -55 -36 19 -79 12 -113 -19 -32 -28
-33 -32 -33 -106 0 -72 2 -78 28 -101 32 -27 70 -30 107 -9 32 18 40 18 40 0
0 -9 9 -15 25 -15 l25 0 0 185 0 185 -30 0 -30 0 0 -65z m-12 -107 c7 -7 12
-38 12 -70 0 -46 -4 -59 -19 -68 -31 -16 -69 -12 -81 9 -15 29 -12 93 6 119
17 24 62 30 82 10z"/>
<path d="M2450 5097 c0 -150 -7 -167 -69 -167 -29 0 -32 -3 -29 -27 2 -24 8
-29 37 -31 18 -2 47 2 63 9 50 21 62 58 66 212 l4 137 -36 0 -36 0 0 -133z"/>
<path d="M3406 5215 c-40 -21 -55 -44 -56 -83 0 -48 13 -66 62 -86 81 -33 93
-41 96 -66 7 -47 -49 -64 -113 -33 -31 15 -37 15 -46 3 -15 -25 -6 -44 31 -63
53 -27 123 -18 162 21 57 56 34 150 -41 167 -44 9 -91 43 -91 65 0 37 47 47
117 25 16 -5 24 -1 33 14 10 19 7 23 -24 36 -45 19 -93 19 -130 0z"/>
<path d="M4815 5083 c-32 -81 -64 -163 -72 -180 l-13 -33 34 0 c30 0 35 4 50
45 l18 45 73 0 74 0 20 -45 c17 -39 24 -45 50 -45 17 0 31 1 31 3 0 1 -31 81
-69 177 l-69 175 -34 3 -35 3 -58 -148z m120 4 c14 -37 25 -70 25 -72 0 -3
-25 -5 -56 -5 -31 0 -54 4 -52 8 2 4 14 38 27 75 14 37 26 65 28 64 1 -2 14
-33 28 -70z"/>
<path d="M8250 5050 l0 -180 88 0 c103 0 157 20 193 71 20 29 24 46 24 109 0
63 -4 80 -24 109 -36 51 -90 71 -193 71 l-88 0 0 -180z m197 110 c30 -18 53
-66 53 -110 0 -8 -5 -32 -11 -53 -14 -51 -57 -77 -126 -77 l-53 0 0 130 0 130
53 0 c34 0 63 -7 84 -20z"/>
<path d="M9466 5215 c-40 -21 -55 -44 -56 -83 0 -48 13 -66 62 -86 81 -33 93
-41 96 -66 7 -47 -49 -64 -113 -33 -31 15 -37 15 -46 3 -15 -25 -6 -44 31 -63
85 -44 191 6 194 91 1 49 -25 81 -81 101 -56 20 -83 39 -83 61 0 37 47 47 117
25 16 -5 24 -1 33 14 10 19 7 23 -24 36 -45 19 -93 19 -130 0z"/>
<path d="M4504 5171 c-5 -31 -12 -41 -30 -45 -29 -8 -32 -36 -4 -43 18 -5 20
-14 20 -79 0 -117 20 -144 96 -129 44 8 43 37 -1 45 -30 5 -30 5 -33 83 l-3
77 36 0 c31 0 35 3 35 25 0 22 -4 25 -35 25 -34 0 -35 1 -35 40 0 33 -3 40
-20 40 -15 0 -21 -9 -26 -39z"/>
<path d="M6157 5203 c-3 -5 -8 -22 -11 -39 -5 -20 -15 -34 -27 -37 -25 -7 -25
-37 1 -44 18 -5 20 -14 20 -94 0 -79 2 -89 22 -103 26 -18 61 -20 88 -6 27 15
14 40 -21 40 l-29 0 0 80 0 80 30 0 c25 0 30 4 30 25 0 21 -5 25 -30 25 -28 0
-30 2 -30 40 0 33 -3 40 -19 40 -11 0 -22 -3 -24 -7z"/>
<path d="M8907 5203 c-3 -5 -8 -22 -11 -39 -5 -20 -15 -34 -27 -37 -25 -7 -25
-37 1 -44 18 -5 20 -14 20 -94 0 -79 2 -89 22 -103 26 -18 61 -20 88 -6 27 15
14 40 -21 40 l-29 0 0 80 0 80 30 0 c25 0 30 4 30 25 0 21 -5 25 -30 25 -28 0
-30 2 -30 40 0 33 -3 40 -19 40 -11 0 -22 -3 -24 -7z"/>
<path d="M9716 5198 c-3 -7 -7 -25 -10 -40 -3 -15 -15 -30 -26 -33 -26 -8 -26
-35 0 -42 18 -5 20 -14 20 -89 0 -71 3 -87 20 -104 23 -23 68 -26 95 -7 24 18
11 37 -26 37 l-29 0 0 80 0 80 35 0 c31 0 35 3 35 25 0 22 -4 25 -35 25 -34 0
-35 1 -35 40 0 34 -3 40 -20 40 -11 0 -22 -6 -24 -12z"/>
<path d="M10626 5198 c-3 -7 -7 -25 -10 -40 -3 -15 -15 -30 -26 -33 -26 -8
-26 -35 0 -42 18 -5 20 -14 20 -89 0 -71 3 -87 20 -104 22 -22 60 -26 90 -10
27 15 14 40 -21 40 l-29 0 0 80 0 80 35 0 c31 0 35 3 35 25 0 22 -4 25 -35 25
-34 0 -35 1 -35 40 0 34 -3 40 -20 40 -11 0 -22 -6 -24 -12z"/>
<path d="M2623 5115 c-35 -15 -44 -42 -18 -51 8 -4 22 -1 29 6 8 6 30 10 48 8
28 -2 34 -7 36 -30 3 -24 0 -28 -22 -28 -37 0 -105 -30 -116 -51 -38 -70 50
-131 119 -82 22 15 25 15 36 0 7 -10 20 -17 29 -17 14 0 16 14 16 103 -1 64
-5 108 -13 118 -30 40 -87 49 -144 24z m97 -160 c0 -26 -29 -40 -67 -33 -27 5
-28 37 -1 47 44 18 68 13 68 -14z"/>
<path d="M2810 5123 c0 -3 21 -62 48 -130 46 -121 48 -124 76 -121 27 3 32 11
77 127 27 69 49 126 49 128 0 2 -13 3 -29 3 -27 0 -30 -5 -63 -95 l-34 -95
-33 95 c-32 90 -35 95 -62 95 -16 0 -29 -3 -29 -7z"/>
<path d="M3133 5114 c-37 -18 -40 -26 -19 -43 11 -9 20 -9 35 -2 43 23 91 7
91 -30 0 -12 -12 -18 -49 -23 -65 -9 -101 -37 -101 -81 0 -59 58 -82 122 -49
28 15 32 15 40 0 5 -9 18 -16 29 -16 20 0 21 5 17 106 -3 102 -4 107 -31 130
-33 28 -86 31 -134 8z m107 -154 c0 -22 -28 -40 -64 -40 -35 0 -43 20 -16 42
31 25 80 24 80 -2z"/>
<path d="M3668 5114 c-81 -43 -74 -203 10 -235 36 -14 98 -5 123 17 18 16 18
19 4 33 -12 12 -17 13 -27 3 -21 -21 -75 -15 -92 10 -21 29 -20 87 0 117 15
21 22 23 65 18 34 -4 51 -2 59 8 9 11 5 17 -19 29 -37 20 -88 20 -123 0z"/>
<path d="M3860 5000 l0 -130 30 0 30 0 0 83 c0 93 13 117 62 117 25 0 38 16
38 46 0 21 -43 17 -73 -6 -14 -11 -28 -20 -31 -20 -3 0 -6 9 -6 20 0 15 -7 20
-25 20 l-25 0 0 -130z"/>
<path d="M4070 5000 l0 -130 30 0 30 0 0 130 0 130 -30 0 -30 0 0 -130z"/>
<path d="M4200 4960 l0 -170 30 0 c29 0 30 1 30 49 l0 49 29 -11 c72 -27 141
35 141 125 0 105 -63 155 -144 113 -35 -18 -36 -18 -36 0 0 9 -9 15 -25 15
l-25 0 0 -170z m160 94 c15 -38 12 -87 -6 -112 -12 -18 -24 -22 -52 -20 l-37
3 -3 63 c-4 75 7 92 54 92 28 0 36 -5 44 -26z"/>
<path d="M5290 5123 c-34 -13 -50 -37 -50 -73 0 -21 7 -43 15 -50 12 -10 12
-15 -1 -35 -11 -17 -13 -29 -6 -42 8 -13 5 -24 -9 -42 -25 -30 -24 -37 6 -66
21 -22 33 -25 90 -25 60 0 69 3 96 29 58 59 29 109 -70 118 -75 7 -83 28 -14
36 54 6 98 45 89 80 -3 13 1 21 15 24 19 5 26 28 12 36 -14 8 -157 16 -173 10z
m88 -72 c4 -26 -12 -41 -44 -41 -29 0 -47 24 -39 50 5 17 13 21 43 18 30 -2
38 -7 40 -27z m21 -175 c10 -11 7 -17 -11 -30 -24 -17 -48 -20 -85 -10 -22 6
-31 33 -16 47 12 13 100 7 112 -7z"/>
<path d="M5553 5116 c-40 -18 -63 -62 -63 -121 0 -84 67 -137 153 -121 95 18
126 156 52 226 -30 28 -98 36 -142 16z m113 -72 c15 -37 12 -87 -8 -111 -15
-18 -68 -16 -90 4 -23 20 -24 90 -2 121 11 16 25 22 50 22 31 0 37 -4 50 -36z"/>
<path d="M5790 5000 l0 -130 30 0 30 0 0 83 c0 93 13 117 63 117 15 0 27 3 27
8 0 4 3 17 6 30 6 19 3 22 -23 22 -16 0 -39 -9 -51 -20 -12 -11 -24 -20 -27
-20 -3 0 -5 9 -5 20 0 15 -7 20 -25 20 l-25 0 0 -130z"/>
<path d="M5990 5000 l0 -130 30 0 30 0 0 130 0 130 -30 0 -30 0 0 -130z"/>
<path d="M6590 5000 l0 -130 30 0 30 0 0 94 c0 103 8 120 57 114 l28 -3 3
-102 3 -103 29 0 30 0 0 88 c0 102 11 125 55 120 l30 -3 3 -102 3 -103 29 0
30 0 0 105 c0 99 -2 107 -25 130 -30 31 -82 33 -117 5 -25 -19 -26 -19 -43 0
-21 24 -62 26 -92 5 -19 -13 -22 -13 -27 0 -3 8 -17 15 -31 15 l-25 0 0 -130z"/>
<path d="M7045 5120 c-33 -13 -47 -36 -43 -72 3 -29 10 -36 58 -60 37 -18 55
-33 55 -45 0 -15 -8 -18 -57 -16 -41 1 -58 -2 -62 -13 -7 -19 43 -44 89 -44
44 0 95 45 95 84 0 26 -41 66 -69 66 -27 0 -61 29 -54 46 5 13 16 15 54 11 34
-4 51 -2 59 8 24 29 -73 57 -125 35z"/>
<path d="M7363 5115 c-35 -15 -44 -42 -18 -51 8 -4 22 -1 29 6 8 6 30 10 48 8
28 -2 34 -7 36 -30 3 -24 0 -28 -22 -28 -37 0 -105 -30 -116 -51 -38 -70 50
-131 119 -82 22 15 25 15 36 0 7 -10 20 -17 29 -17 14 0 16 14 16 103 -1 64
-5 108 -13 118 -30 40 -87 49 -144 24z m97 -160 c0 -26 -29 -40 -67 -33 -27 5
-28 37 -1 47 44 18 68 13 68 -14z"/>
<path d="M7580 5000 l0 -130 30 0 30 0 0 89 c0 100 10 121 61 121 39 0 49 -27
49 -131 l0 -79 31 0 31 0 -4 106 c-3 102 -5 107 -31 130 -32 28 -66 30 -107 9
-25 -13 -29 -13 -34 0 -3 8 -17 15 -31 15 l-25 0 0 -130z"/>
<path d="M8654 5116 c-39 -17 -48 -30 -30 -46 11 -8 20 -9 36 0 11 6 35 10 53
8 27 -2 33 -8 35 -30 3 -24 0 -28 -21 -28 -38 0 -90 -20 -109 -42 -58 -65 37
-143 111 -92 22 16 24 16 33 0 5 -9 18 -16 28 -16 19 0 20 8 20 101 0 98 -1
101 -29 130 -33 33 -75 37 -127 15z m96 -154 c0 -27 -20 -42 -57 -42 -26 0
-33 4 -33 20 0 23 25 39 63 40 19 0 27 -5 27 -18z"/>
<path d="M9104 5116 c-39 -17 -48 -30 -30 -46 11 -8 20 -9 36 0 11 6 35 10 53
8 27 -2 33 -8 35 -30 3 -24 0 -28 -21 -28 -38 0 -90 -20 -109 -42 -58 -65 37
-143 111 -92 22 16 24 16 33 0 5 -9 18 -16 28 -16 19 0 20 8 20 101 0 98 -1
101 -29 130 -33 33 -75 37 -127 15z m96 -154 c0 -27 -20 -42 -57 -42 -26 0
-33 4 -33 20 0 23 25 39 63 40 19 0 27 -5 27 -18z"/>
<path d="M9870 5000 l0 -130 30 0 30 0 0 80 c0 91 17 120 70 120 27 0 30 3 30
30 0 25 -4 30 -24 30 -13 0 -35 -9 -49 -20 -25 -20 -25 -20 -30 0 -3 14 -14
20 -31 20 l-26 0 0 -130z"/>
<path d="M10072 5024 c3 -102 4 -107 31 -130 32 -27 66 -30 107 -9 25 13 29
13 34 0 3 -8 15 -15 26 -15 19 0 20 6 20 130 l0 130 -30 0 -30 0 0 -93 c0
-101 -7 -117 -50 -117 -43 0 -50 16 -50 117 l0 93 -31 0 -31 0 4 -106z"/>
<path d="M10414 5121 c-58 -25 -86 -106 -60 -174 26 -70 99 -97 166 -62 51 26
36 63 -17 43 -69 -26 -118 30 -93 107 13 39 35 49 89 40 44 -7 62 8 38 32 -18
18 -93 27 -123 14z"/>
<path d="M10782 5024 c3 -102 4 -107 31 -130 32 -27 66 -30 107 -9 25 13 29
13 34 0 3 -8 15 -15 26 -15 19 0 20 6 20 130 l0 130 -30 0 -30 0 0 -93 c0
-101 -7 -117 -50 -117 -43 0 -50 16 -50 117 l0 93 -31 0 -31 0 4 -106z"/>
<path d="M11070 5000 l0 -130 30 0 30 0 0 83 c0 93 13 117 63 117 15 0 27 3
27 8 0 4 3 17 6 30 6 19 3 22 -23 22 -16 0 -39 -9 -51 -20 -12 -11 -24 -20
-27 -20 -3 0 -5 9 -5 20 0 15 -7 20 -25 20 l-25 0 0 -130z"/>
<path d="M11330 5123 c-30 -11 -70 -57 -76 -89 -13 -73 30 -148 92 -160 41 -8
92 1 119 21 17 14 18 17 3 31 -12 13 -20 14 -36 5 -48 -25 -103 -8 -117 37 -6
22 -5 22 79 22 l86 0 0 38 c-1 73 -77 122 -150 95z m94 -65 c15 -25 5 -29 -58
-26 l-57 3 17 23 c12 18 24 22 51 20 20 -2 41 -10 47 -20z"/>
<path d="M11560 5117 c-32 -16 -47 -58 -32 -91 7 -17 28 -31 62 -43 40 -14 50
-22 48 -38 -3 -23 -46 -32 -77 -16 -15 8 -23 7 -35 -5 -21 -20 -21 -21 14 -39
53 -27 138 -11 154 30 19 51 -2 85 -70 108 -27 10 -39 20 -39 33 0 16 7 19 47
19 63 0 81 18 40 39 -37 19 -78 20 -112 3z"/>
<path d="M4580 4425 l0 -105 55 0 c46 0 60 5 87 28 27 25 31 36 31 77 0 41 -4
52 -31 77 -27 23 -41 28 -87 28 l-55 0 0 -105z m129 59 c12 -15 21 -41 21 -59
0 -50 -33 -85 -81 -85 l-39 0 0 85 0 85 39 0 c31 0 44 -6 60 -26z"/>
<path d="M5210 4425 c0 -63 4 -105 10 -105 6 0 10 42 10 105 0 63 -4 105 -10
105 -6 0 -10 -42 -10 -105z"/>
<path d="M5928 4515 c-60 -33 -59 -149 2 -180 16 -8 39 -15 52 -15 28 1 74 25
61 33 -5 3 -15 2 -23 -4 -29 -17 -68 -10 -89 17 -57 72 12 175 89 134 13 -7
21 -7 25 0 7 12 -36 30 -68 30 -12 -1 -34 -7 -49 -15z"/>
<path d="M6440 4510 c0 -13 5 -20 13 -17 6 2 12 10 12 17 0 7 -6 15 -12 18 -8
2 -13 -5 -13 -18z"/>
<path d="M6533 4511 c-43 -47 -47 -55 -35 -59 8 -2 12 -27 12 -68 0 -50 3 -64
15 -64 12 0 15 14 15 65 l0 65 30 0 30 0 0 -65 c0 -37 4 -65 10 -65 6 0 10 32
10 75 l0 75 -45 0 c-43 0 -45 1 -35 20 6 11 20 20 30 20 11 0 20 5 20 10 0 17
-39 11 -57 -9z"/>
<path d="M7034 4519 c-10 -17 13 -36 27 -22 12 12 4 33 -11 33 -5 0 -12 -5
-16 -11z"/>
<path d="M7868 4438 l-3 -93 -27 -3 c-35 -4 -37 -22 -3 -22 49 0 65 31 65 125
0 68 -3 85 -15 85 -11 0 -15 -19 -17 -92z"/>
<path d="M8488 4505 c-36 -31 -38 -54 -3 -31 l25 16 0 -75 c0 -68 -2 -75 -20
-75 -11 0 -20 -4 -20 -10 0 -5 23 -10 50 -10 28 0 50 5 50 10 0 6 -9 10 -20
10 -19 0 -20 7 -20 95 0 52 -3 95 -7 95 -5 0 -20 -12 -35 -25z"/>
<path d="M8600 4520 c0 -5 24 -10 54 -12 l54 -3 -43 -92 c-28 -60 -39 -93 -31
-93 10 0 106 185 106 205 0 3 -31 5 -70 5 -38 0 -70 -4 -70 -10z"/>
<path d="M8897 4512 c-18 -19 -23 -42 -9 -42 4 0 13 9 20 21 20 32 56 22 60
-17 3 -26 -6 -41 -47 -87 -28 -30 -51 -58 -51 -61 0 -3 29 -6 65 -6 37 0 65 4
65 10 0 6 -21 10 -47 10 l-47 0 36 38 c63 65 74 109 36 136 -30 21 -61 20 -81
-2z"/>
<path d="M9056 4511 c-40 -44 -40 -128 0 -172 53 -58 127 21 110 116 -13 67
-72 98 -110 56z m74 -20 c5 -11 10 -41 10 -66 0 -55 -14 -85 -40 -85 -27 0
-50 38 -50 85 0 70 54 114 80 66z"/>
<path d="M9217 4512 c-18 -19 -23 -42 -9 -42 4 0 13 9 20 21 20 32 56 22 60
-17 3 -26 -6 -41 -47 -87 -28 -30 -51 -58 -51 -61 0 -3 29 -6 65 -6 37 0 65 4
65 10 0 6 -21 10 -47 10 l-47 0 36 38 c63 65 74 109 36 136 -30 21 -61 20 -81
-2z"/>
<path d="M9375 4505 c-3 -14 -7 -36 -10 -50 -5 -22 -2 -25 24 -25 46 0 61 -10
61 -40 0 -39 -22 -54 -67 -46 -35 6 -37 5 -19 -9 11 -8 30 -15 43 -15 29 0 73
42 73 70 0 28 -35 60 -65 60 -21 0 -25 5 -25 30 0 28 2 30 40 30 22 0 40 5 40
10 0 6 -20 10 -45 10 -40 0 -45 -3 -50 -25z"/>
<path d="M6350 4500 c0 -10 -8 -24 -17 -29 -13 -8 -15 -13 -6 -19 6 -4 13 -32
15 -61 3 -59 21 -80 54 -66 18 8 17 9 -3 12 -21 4 -23 10 -23 59 0 47 2 54 20
54 11 0 20 5 20 10 0 6 -9 10 -20 10 -15 0 -20 7 -20 25 0 14 -4 25 -10 25 -5
0 -10 -9 -10 -20z"/>
<path d="M6948 4514 c-5 -4 -8 -15 -8 -25 0 -9 -6 -20 -12 -23 -10 -5 -10 -7
0 -12 7 -3 12 -26 12 -59 0 -59 16 -81 50 -70 24 7 18 20 -8 20 -13 0 -18 11
-20 53 -3 47 -1 52 17 52 12 0 21 5 21 10 0 6 -9 10 -19 10 -14 0 -21 8 -23
26 -2 14 -6 22 -10 18z"/>
<path d="M4799 4451 c-17 -14 -23 -28 -22 -57 2 -56 46 -87 97 -68 28 11 17
24 -14 18 -32 -7 -60 8 -60 32 0 10 14 14 50 14 43 0 50 3 50 20 0 25 -34 60
-59 60 -10 0 -29 -8 -42 -19z m69 -13 c21 -21 13 -28 -28 -28 -22 0 -40 4 -40
8 0 14 23 32 40 32 9 0 21 -5 28 -12z"/>
<path d="M4911 4464 c2 -5 15 -40 29 -77 14 -37 30 -67 37 -67 9 0 63 120 63
143 0 16 -19 5 -26 -15 -3 -12 -13 -37 -21 -57 l-15 -36 -22 54 c-12 30 -28
57 -35 59 -7 2 -12 1 -10 -4z"/>
<path d="M5071 4444 c-12 -15 -21 -37 -21 -49 0 -51 55 -88 104 -69 28 11 17
21 -20 20 -27 -1 -40 5 -51 22 -15 22 -15 22 36 22 47 0 51 2 51 24 0 56 -64
75 -99 30z m77 -16 c3 -15 -4 -18 -32 -18 -24 0 -36 5 -36 14 0 30 63 33 68 4z"/>
<path d="M5290 4450 c-43 -43 -13 -130 45 -130 36 0 65 33 65 75 0 42 -29 75
-65 75 -14 0 -34 -9 -45 -20z m70 -9 c8 -6 14 -25 14 -46 0 -59 -59 -76 -78
-23 -19 53 21 95 64 69z"/>
<path d="M5430 4370 c0 -60 4 -100 10 -100 6 0 10 13 10 30 0 28 2 29 30 23
44 -8 70 18 70 73 0 63 -33 89 -81 64 -13 -7 -19 -7 -19 0 0 5 -4 10 -10 10
-6 0 -10 -40 -10 -100z m88 68 c16 -16 15 -60 -1 -83 -10 -13 -21 -16 -40 -11
-23 5 -27 12 -27 44 0 40 14 62 40 62 9 0 21 -5 28 -12z"/>
<path d="M5591 4444 c-12 -15 -21 -37 -21 -49 0 -51 55 -88 104 -69 28 11 17
21 -20 20 -27 -1 -40 5 -51 22 -15 22 -15 22 36 22 47 0 51 2 51 24 0 56 -64
75 -99 30z m77 -16 c3 -15 -4 -18 -32 -18 -24 0 -36 5 -36 14 0 30 63 33 68 4z"/>
<path d="M5730 4395 c0 -43 4 -75 10 -75 6 0 10 24 10 53 0 55 12 77 42 77 10
0 18 5 18 10 0 14 -33 13 -48 -2 -9 -9 -12 -9 -12 0 0 7 -4 12 -10 12 -6 0
-10 -32 -10 -75z"/>
<path d="M6089 4449 c-17 -17 -20 -29 -16 -62 8 -62 58 -87 103 -52 18 14 17
15 -17 9 -26 -4 -40 -1 -52 11 -27 27 -20 35 33 35 46 0 50 2 50 23 0 52 -63
74 -101 36z m79 -21 c3 -15 -4 -18 -38 -18 -38 0 -40 1 -30 21 14 25 63 23 68
-3z"/>
<path d="M6220 4395 c0 -43 4 -75 10 -75 6 0 10 21 10 46 0 54 14 84 40 84 10
0 22 5 25 10 8 13 -21 13 -46 0 -13 -7 -19 -7 -19 0 0 5 -4 10 -10 10 -6 0
-10 -32 -10 -75z"/>
<path d="M6440 4395 c0 -43 4 -75 10 -75 6 0 10 32 10 75 0 43 -4 75 -10 75
-6 0 -10 -32 -10 -75z"/>
<path d="M6681 4453 c-17 -14 -23 -29 -23 -57 0 -65 52 -97 98 -61 18 15 17
16 -14 10 -42 -9 -62 8 -62 50 0 40 21 59 56 51 19 -5 25 -3 22 6 -7 20 -52
21 -77 1z"/>
<path d="M6807 4459 c-9 -6 -15 -14 -12 -19 4 -6 14 -5 24 2 24 15 51 4 51
-21 0 -14 -9 -21 -35 -25 -40 -8 -58 -33 -44 -59 11 -19 54 -23 64 -7 5 8 11
7 21 -1 12 -10 14 -1 14 53 0 36 -5 69 -12 76 -15 15 -47 15 -71 1z m61 -96
c-4 -22 -58 -31 -58 -10 0 20 10 27 37 27 18 0 24 -5 21 -17z"/>
<path d="M7040 4395 c0 -43 4 -75 10 -75 6 0 10 32 10 75 0 43 -4 75 -10 75
-6 0 -10 -32 -10 -75z"/>
<path d="M7119 4451 c-50 -40 -17 -131 46 -131 28 0 65 43 65 75 0 32 -37 75
-65 75 -12 0 -33 -8 -46 -19z m70 -15 c17 -20 10 -77 -11 -90 -26 -16 -52 4
-56 43 -4 36 12 61 38 61 10 0 23 -6 29 -14z"/>
<path d="M7260 4395 c0 -87 18 -102 22 -19 3 60 20 83 52 71 12 -5 16 -20 16
-67 0 -33 4 -60 10 -60 14 0 13 123 -2 138 -7 7 -21 12 -33 12 -12 0 -26 -5
-33 -12 -9 -9 -12 -9 -12 0 0 7 -4 12 -10 12 -6 0 -10 -32 -10 -75z"/>
<path d="M7471 4444 c-12 -15 -21 -37 -21 -49 0 -31 37 -75 64 -75 42 0 66 27
66 75 0 34 -5 47 -22 59 -33 23 -64 19 -87 -10z m77 -6 c7 -7 12 -26 12 -43 0
-50 -42 -74 -70 -40 -39 47 16 125 58 83z"/>
<path d="M7620 4395 c0 -87 18 -102 22 -19 3 60 20 83 52 71 12 -5 16 -20 16
-67 0 -33 4 -60 10 -60 14 0 13 123 -2 138 -7 7 -21 12 -33 12 -12 0 -26 -5
-33 -12 -9 -9 -12 -9 -12 0 0 7 -4 12 -10 12 -6 0 -10 -32 -10 -75z"/>
<path d="M7940 4411 c0 -80 28 -109 81 -81 13 7 19 7 19 0 0 -5 5 -10 10 -10
6 0 10 32 10 75 0 59 -3 75 -15 75 -10 0 -15 -16 -17 -62 -3 -53 -6 -63 -22
-66 -28 -6 -46 25 -46 80 0 26 -4 48 -10 48 -6 0 -10 -26 -10 -59z"/>
<path d="M8100 4395 c0 -87 18 -102 22 -19 3 60 20 83 52 71 12 -5 16 -20 16
-67 0 -33 4 -60 10 -60 14 0 13 123 -2 138 -7 7 -21 12 -33 12 -12 0 -26 -5
-33 -12 -9 -9 -12 -9 -12 0 0 7 -4 12 -10 12 -6 0 -10 -32 -10 -75z"/>
<path d="M8259 4449 c-17 -17 -20 -29 -16 -62 8 -62 58 -87 103 -52 18 14 17
15 -17 9 -26 -4 -40 -1 -52 11 -27 27 -20 35 33 35 46 0 50 2 50 23 0 52 -63
74 -101 36z m79 -21 c3 -15 -4 -18 -38 -18 -38 0 -40 1 -30 21 14 25 63 23 68
-3z"/>
<path d="M8760 4335 c0 -8 5 -15 12 -15 9 0 9 -3 0 -12 -17 -17 -15 -33 3 -18
8 7 15 23 15 36 0 15 -6 24 -15 24 -8 0 -15 -7 -15 -15z"/>
<path d="M5890 3970 c0 -5 5 -10 10 -10 6 0 10 5 10 10 0 6 -4 10 -10 10 -5 0
-10 -4 -10 -10z"/>
<path d="M6790 3970 c0 -5 5 -10 10 -10 6 0 10 5 10 10 0 6 -4 10 -10 10 -5 0
-10 -4 -10 -10z"/>
<path d="M7280 3910 c0 -40 4 -70 10 -70 6 0 10 30 10 70 0 40 -4 70 -10 70
-6 0 -10 -30 -10 -70z"/>
<path d="M7482 3968 c-20 -20 -13 -32 8 -13 21 19 50 14 50 -9 0 -8 -7 -19
-16 -24 -15 -8 -15 -10 0 -15 20 -8 21 -46 1 -54 -9 -3 -25 3 -35 12 -11 10
-20 13 -20 8 0 -18 28 -35 51 -31 30 4 47 33 33 55 -8 13 -8 23 -1 35 22 34
-41 66 -71 36z"/>
<path d="M7596 3964 c-9 -9 -16 -32 -16 -54 0 -64 52 -94 84 -48 44 63 -17
154 -68 102z m52 -6 c16 -16 15 -83 -2 -97 -31 -26 -64 16 -51 67 10 39 32 51
53 30z"/>
<path d="M7706 3958 c-44 -63 17 -154 68 -102 9 9 16 32 16 54 0 64 -52 94
-84 48z m58 -10 c21 -30 20 -51 -3 -79 -16 -20 -21 -21 -35 -10 -28 24 -16
111 15 111 5 0 15 -10 23 -22z"/>
<path d="M7850 3910 c0 -76 17 -97 22 -27 2 34 7 42 23 42 16 0 21 -9 26 -45
l7 -45 -2 50 c-1 48 -2 50 -28 50 -23 -1 -28 4 -28 22 0 13 -4 23 -10 23 -6 0
-10 -30 -10 -70z"/>
<path d="M8513 3973 c-7 -2 -13 -11 -13 -18 0 -7 -6 -16 -12 -18 -10 -4 -10
-6 0 -6 8 -1 12 -17 12 -46 0 -25 5 -45 10 -45 6 0 10 20 10 45 0 29 4 45 13
45 8 0 7 4 -3 10 -13 9 -12 12 4 25 20 15 7 20 -21 8z"/>
<path d="M8940 3910 c0 -40 4 -70 10 -70 6 0 10 12 10 27 l0 27 30 -29 c16
-16 32 -26 35 -23 3 2 -4 13 -15 23 -24 22 -25 38 -5 55 9 7 13 15 10 18 -3 3
-16 -5 -30 -18 l-25 -23 0 41 c0 23 -4 42 -10 42 -6 0 -10 -30 -10 -70z"/>
<path d="M5821 3958 c0 -10 -6 -18 -12 -18 -8 0 -8 -4 -1 -13 6 -6 12 -28 14
-47 2 -24 9 -36 21 -38 9 -2 17 1 17 7 0 6 -6 10 -12 9 -21 -5 -22 54 -2 69
16 11 16 13 2 13 -9 0 -19 8 -21 18 -4 16 -5 16 -6 0z"/>
<path d="M7111 3958 c0 -10 -6 -18 -12 -18 -8 0 -8 -4 -1 -13 6 -6 12 -28 14
-47 2 -24 9 -36 21 -38 9 -2 17 1 17 7 0 6 -6 10 -12 9 -21 -5 -22 54 -2 69
16 11 16 13 2 13 -9 0 -19 8 -21 18 -4 16 -5 16 -6 0z"/>
<path d="M5042 3885 c1 -43 2 -45 5 -13 3 23 12 43 24 52 20 14 20 14 -5 12
-25 -1 -26 -4 -24 -51z"/>
<path d="M5122 3928 c-7 -7 -12 -24 -12 -38 0 -14 5 -31 12 -38 15 -15 55 -16
64 0 5 8 2 9 -9 5 -22 -8 -47 2 -47 19 0 9 12 14 35 14 38 0 44 10 19 34 -18
19 -45 21 -62 4z m56 -15 c2 -8 -6 -13 -22 -13 -25 0 -33 10 -19 24 10 10 36
3 41 -11z"/>
<path d="M5221 3870 c1 -36 4 -55 6 -42 3 17 9 21 27 16 25 -6 56 17 56 42 0
35 -20 54 -55 51 l-35 -2 1 -65z m53 54 c20 -8 21 -48 1 -64 -30 -25 -61 30
-33 58 14 14 12 14 32 6z"/>
<path d="M5331 3885 c1 -27 3 -41 6 -30 2 11 6 30 9 43 2 13 15 27 27 32 19 7
18 8 -10 7 -33 -2 -33 -2 -32 -52z"/>
<path d="M5416 3924 c-43 -43 14 -108 64 -73 12 9 10 10 -8 6 -30 -7 -52 1
-52 19 0 9 12 14 35 14 36 0 46 15 23 38 -17 17 -44 15 -62 -4z m52 -12 c2 -7
-7 -12 -22 -12 -27 0 -35 15 -13 23 17 7 30 3 35 -11z"/>
<path d="M5517 3933 c-16 -15 -6 -41 19 -47 34 -9 25 -31 -12 -29 -27 1 -28 1
-7 -9 29 -14 53 -4 53 21 0 14 -9 23 -25 27 -31 8 -27 30 4 27 13 -2 20 1 16
7 -7 11 -38 13 -48 3z"/>
<path d="M5606 3924 c-43 -43 14 -108 64 -73 12 9 10 10 -8 6 -30 -7 -52 1
-52 19 0 9 12 14 35 14 36 0 46 15 23 38 -17 17 -44 15 -62 -4z m52 -12 c2 -7
-7 -12 -22 -12 -27 0 -35 15 -13 23 17 7 30 3 35 -11z"/>
<path d="M5700 3888 c0 -59 18 -64 22 -5 2 34 7 42 23 42 16 0 21 -9 26 -45
l7 -45 -2 50 -1 50 -37 0 -38 1 0 -48z"/>
<path d="M5893 3890 c0 -30 2 -43 4 -27 2 15 2 39 0 55 -2 15 -4 2 -4 -28z"/>
<path d="M5942 3885 c1 -49 2 -49 5 -8 3 25 10 44 19 47 25 10 34 -2 34 -45 0
-21 5 -39 10 -39 14 0 12 76 -2 88 -7 6 -25 10 -40 9 -27 -2 -28 -4 -26 -52z"/>
<path d="M6054 3928 c-5 -7 -9 -35 -9 -63 0 -46 2 -50 26 -53 28 -3 63 22 56
42 -2 6 -19 14 -38 17 -19 4 -25 7 -13 8 23 1 37 14 47 44 5 14 0 17 -27 17
-18 0 -38 -6 -42 -12z m41 -19 c0 -7 -8 -15 -17 -17 -18 -3 -25 18 -11 32 10
10 28 1 28 -15z m11 -60 c6 -10 -11 -29 -26 -29 -3 0 -11 4 -19 9 -17 11 -5
31 19 31 10 0 22 -5 26 -11z"/>
<path d="M6195 3930 c-4 -6 3 -9 16 -7 12 1 24 -4 26 -10 3 -8 -4 -13 -15 -13
-25 0 -46 -25 -38 -45 4 -10 17 -14 41 -13 33 3 35 5 35 39 0 19 -5 40 -12 47
-15 15 -45 16 -53 2z m45 -55 c0 -16 -27 -32 -37 -22 -3 4 -3 13 0 22 8 20 37
20 37 0z"/>
<path d="M6291 3870 c1 -36 4 -55 6 -44 3 16 9 20 24 17 27 -7 49 14 49 47 0
34 -17 49 -52 47 -28 -2 -28 -3 -27 -67z m57 48 c15 -15 15 -30 -1 -52 -16
-22 -47 -11 -47 18 0 21 17 46 30 46 3 0 11 -5 18 -12z"/>
<path d="M6401 3870 c1 -36 4 -55 6 -44 3 16 9 20 24 17 27 -7 49 14 49 47 0
34 -17 49 -52 47 -28 -2 -28 -3 -27 -67z m57 48 c15 -15 15 -30 -1 -52 -16
-22 -47 -11 -47 18 0 21 17 46 30 46 3 0 11 -5 18 -12z"/>
<path d="M6500 3888 c0 -26 5 -48 10 -48 6 0 10 15 10 34 0 24 7 39 21 50 21
14 21 15 -10 14 -30 -1 -31 -2 -31 -50z"/>
<path d="M6592 3928 c-7 -7 -12 -24 -12 -38 0 -31 17 -50 45 -50 28 0 45 19
45 50 0 31 -17 50 -45 50 -12 0 -26 -5 -33 -12z m53 -38 c0 -41 -27 -53 -45
-21 -14 27 4 64 28 59 12 -2 17 -13 17 -38z"/>
<path d="M6695 3916 c15 -23 15 -27 0 -50 -10 -15 -13 -26 -7 -26 6 0 17 10
23 22 l12 22 15 -22 c22 -33 34 -27 14 7 -16 28 -15 31 2 50 11 12 14 21 8 21
-6 0 -17 -9 -26 -21 l-14 -21 -11 21 c-7 12 -16 21 -22 21 -5 0 -2 -11 6 -24z"/>
<path d="M6790 3890 c0 -27 5 -50 10 -50 6 0 10 23 10 50 0 28 -4 50 -10 50
-5 0 -10 -22 -10 -50z"/>
<path d="M6842 3885 c1 -42 2 -44 5 -13 4 38 25 64 43 53 5 -3 11 -25 12 -48
l1 -42 4 37 c4 39 28 67 43 52 5 -5 11 -27 13 -49 3 -33 4 -31 3 10 l-1 50
-62 0 -63 0 2 -50z"/>
<path d="M7010 3930 c-11 -7 -8 -9 14 -7 39 3 44 -19 6 -27 -26 -5 -31 -10
-28 -28 2 -19 9 -23 36 -23 33 -1 33 -1 30 45 -2 36 -7 45 -23 48 -11 1 -27
-2 -35 -8z m50 -54 c0 -18 -31 -29 -44 -16 -8 8 -7 14 4 20 22 14 40 12 40 -4z"/>
<path d="M7182 3928 c-7 -7 -12 -24 -12 -38 0 -14 5 -31 12 -38 15 -15 55 -16
64 0 5 8 2 9 -9 5 -22 -8 -47 2 -47 19 0 9 12 14 35 14 38 0 44 10 19 34 -18
19 -45 21 -62 4z m56 -15 c2 -8 -6 -13 -22 -13 -25 0 -33 10 -19 24 10 10 36
3 41 -11z"/>
<path d="M7320 3935 c0 -3 9 -24 20 -46 16 -30 18 -44 10 -59 -6 -11 -7 -20
-2 -20 12 0 66 119 58 127 -3 3 -13 -11 -22 -33 l-16 -39 -15 38 c-8 20 -19
37 -24 37 -5 0 -9 -2 -9 -5z"/>
<path d="M7972 3928 c-7 -7 -12 -24 -12 -38 0 -31 17 -50 45 -50 28 0 45 19
45 50 0 31 -17 50 -45 50 -12 0 -26 -5 -33 -12z m53 -38 c0 -41 -27 -53 -45
-21 -14 27 4 64 28 59 12 -2 17 -13 17 -38z"/>
<path d="M8070 3901 c0 -45 14 -60 52 -58 27 2 28 4 26 52 -1 49 -2 49 -5 8
-3 -25 -10 -44 -19 -47 -25 -10 -34 2 -34 45 0 21 -4 39 -10 39 -5 0 -10 -17
-10 -39z"/>
<path d="M8180 3888 c0 -26 5 -48 10 -48 6 0 10 15 10 34 0 24 7 39 21 50 21
14 21 15 -10 14 -30 -1 -31 -2 -31 -50z"/>
<path d="M8263 3924 c-6 -16 13 -38 40 -47 6 -2 7 -9 3 -15 -5 -8 -16 -10 -28
-6 -14 4 -18 2 -14 -5 9 -15 39 -14 54 1 18 18 15 26 -18 43 -32 17 -31 40 1
32 11 -3 17 -1 13 4 -9 15 -44 10 -51 -7z"/>
<path d="M8392 3928 c-7 -7 -12 -24 -12 -38 0 -31 17 -50 45 -50 28 0 45 19
45 50 0 31 -17 50 -45 50 -12 0 -26 -5 -33 -12z m58 -18 c14 -26 -4 -63 -28
-58 -18 3 -28 39 -18 64 8 20 34 17 46 -6z"/>
<path d="M8590 3937 c0 -17 34 -97 41 -97 5 0 9 4 9 9 0 5 5 22 11 38 l11 28
12 -34 c18 -50 30 -48 48 9 19 58 8 68 -14 13 l-14 -38 -13 38 c-15 45 -27 47
-36 7 -9 -43 -22 -45 -29 -5 -4 19 -11 35 -16 35 -6 0 -10 -1 -10 -3z"/>
<path d="M8762 3928 c-7 -7 -12 -24 -12 -38 0 -31 17 -50 45 -50 28 0 45 19
45 50 0 31 -17 50 -45 50 -12 0 -26 -5 -33 -12z m53 -38 c0 -41 -27 -53 -45
-21 -14 27 4 64 28 59 12 -2 17 -13 17 -38z"/>
<path d="M8860 3888 c0 -26 5 -48 10 -48 6 0 10 15 10 34 0 24 7 39 21 50 21
14 21 15 -10 14 -30 -1 -31 -2 -31 -50z"/>
<path d="M8005 3233 c-25 -86 -62 -250 -90 -408 -55 -299 -96 -460 -135 -522
-24 -40 -34 -41 -49 -5 -25 62 -33 127 -38 307 -3 105 -9 194 -14 200 -6 6
-15 3 -25 -7 -24 -23 -34 -323 -12 -341 10 -7 18 -37 22 -75 3 -35 15 -84 26
-109 11 -25 20 -47 20 -49 0 -2 -41 -4 -92 -4 -90 0 -91 0 -73 20 10 11 24 20
30 20 21 0 35 25 55 97 18 60 18 69 5 79 -11 8 -15 32 -15 92 0 89 -11 132
-35 132 -11 0 -15 -11 -15 -39 0 -48 -8 -71 -25 -71 -7 0 -22 -12 -33 -27 -18
-24 -25 -26 -100 -28 -75 -1 -80 0 -66 16 8 9 34 24 57 34 23 9 50 21 59 26
10 5 24 9 32 9 8 0 18 5 22 11 12 20 -16 34 -69 35 -29 1 -77 5 -107 9 -47 6
-62 3 -100 -17 -41 -22 -98 -82 -141 -148 -16 -24 -17 -24 -15 35 1 53 -1 60
-19 63 -12 2 -32 -9 -50 -28 l-29 -30 -20 37 c-14 24 -31 39 -51 45 -26 7 -33
3 -71 -37 -23 -25 -47 -45 -54 -45 -20 0 -105 -67 -135 -105 -14 -20 -37 -55
-51 -78 l-24 -42 0 58 c0 31 7 172 16 313 15 245 14 299 -5 278 -10 -10 -50
-556 -51 -696 0 -16 -11 -18 -81 -18 -81 0 -82 1 -145 45 -35 25 -67 53 -72
62 -7 11 1 38 25 91 39 87 73 217 73 282 0 58 -24 157 -51 215 -27 58 -104
143 -135 151 -25 6 -54 -10 -54 -29 0 -7 4 -7 12 1 21 21 43 13 79 -25 55 -58
75 -92 98 -167 25 -83 28 -193 5 -279 -22 -86 -71 -190 -86 -185 -38 13 -158
251 -158 315 0 39 61 174 95 212 31 33 32 34 58 16 40 -26 57 -14 25 18 -36
35 -54 34 -93 -7 -31 -33 -46 -60 -83 -147 l-19 -44 -16 55 c-22 74 -32 142
-21 138 19 -6 15 15 -10 63 -57 104 -58 41 -5 -181 30 -123 30 -127 19 -240
-18 -176 6 -282 70 -315 40 -21 61 -19 104 10 20 14 39 25 41 25 3 0 24 -17
46 -37 l42 -38 -254 -5 -254 -6 263 -2 263 -2 70 -46 c38 -26 81 -46 94 -46
30 0 75 27 75 46 0 7 8 20 18 29 16 15 54 17 323 17 214 0 308 -3 316 -11 9
-9 23 -9 57 0 55 14 163 15 171 1 3 -5 17 -10 30 -10 13 0 27 5 30 10 4 6 200
11 548 12 516 3 523 3 135 5 l-407 3 29 48 c47 76 99 285 140 562 19 126 84
410 101 441 8 16 6 19 -10 19 -15 0 -23 -13 -36 -57z m-1935 -696 c14 -35 47
-95 73 -135 l46 -71 -26 -21 c-53 -41 -104 -17 -128 62 -21 73 -19 256 3 233
3 -2 17 -33 32 -68z m1298 44 c-1 -6 -19 -20 -38 -33 -43 -29 -69 -73 -54 -88
14 -14 35 -15 104 -7 74 10 87 0 72 -52 -14 -46 -72 -101 -153 -146 l-54 -30
-323 -3 -324 -3 7 23 c21 69 87 159 143 196 30 20 33 14 20 -36 -13 -51 -3
-107 22 -132 24 -24 43 -18 88 23 19 19 43 31 59 32 29 0 37 14 48 86 3 19 17
51 31 70 l25 34 -7 -93 -7 -94 24 4 c17 2 31 16 45 45 58 114 119 187 170 203
40 11 106 12 102 1z m-424 -69 c7 -25 5 -41 -8 -69 l-17 -37 -39 45 -38 44 26
28 c35 36 63 32 76 -11z m626 -77 c0 -52 -6 -75 -33 -127 -64 -123 -90 -67
-41 87 41 130 74 148 74 40z m-707 -36 c20 -35 20 -36 1 -62 -20 -28 -43 -41
-53 -31 -8 8 -6 95 2 118 10 25 26 16 50 -25z m566 -166 c1 -9 -16 -13 -51
-13 l-53 0 40 27 c22 15 42 31 44 37 5 10 18 -25 20 -51z m-895 -32 c3 -4 -3
-16 -14 -26 -22 -20 -56 -15 -91 15 l-24 19 62 1 c34 0 64 -4 67 -9z"/>
<path d="M12175 2758 c-131 -24 -288 -133 -379 -262 -147 -208 -155 -512 -19
-724 148 -232 428 -350 678 -287 230 59 416 248 470 478 19 80 19 235 0 314
-56 236 -253 433 -483 482 -62 13 -196 13 -267 -1z m258 -133 c188 -49 321
-194 363 -395 38 -183 -28 -381 -167 -503 -229 -202 -573 -158 -748 96 -110
160 -118 398 -18 566 64 110 199 213 313 240 62 14 194 12 257 -4z"/>
<path d="M12235 2598 c-228 -27 -405 -236 -405 -478 0 -129 42 -237 130 -333
89 -98 203 -147 339 -147 222 0 403 149 456 372 19 80 19 136 0 217 -40 168
-155 298 -311 349 -77 26 -124 30 -209 20z m-165 -251 c0 -8 -9 -22 -21 -33
-98 -89 -105 -275 -14 -382 37 -42 44 -62 22 -62 -22 0 -75 62 -98 115 -31 69
-32 191 -3 256 36 78 114 151 114 106z m519 -22 c62 -71 76 -111 75 -210 0
-71 -5 -100 -22 -135 -27 -55 -75 -110 -96 -110 -22 0 -20 7 13 49 49 63 64
102 69 181 5 88 -18 157 -69 206 -16 15 -29 34 -29 41 0 24 28 13 59 -22z
m-233 -93 c12 -25 14 -48 10 -83 -4 -27 -4 -49 -2 -49 3 0 14 9 24 20 l19 21
17 -35 c27 -58 14 -140 -28 -175 -15 -13 -16 -12 -6 14 15 39 7 53 -32 57
l-33 3 -3 65 c-2 36 -7 69 -11 73 -4 4 -28 -25 -52 -64 -33 -55 -44 -83 -44
-115 0 -47 -14 -44 -41 7 -25 50 -17 88 36 179 28 47 56 104 62 128 l11 43 28
-27 c15 -15 36 -43 45 -62z"/>
<path d="M1140 2565 l0 -155 155 0 155 0 0 155 0 155 -155 0 -155 0 0 -155z
m270 0 l0 -115 -115 0 -115 0 0 115 0 115 115 0 115 0 0 -115z"/>
<path d="M1230 2565 l0 -65 65 0 65 0 0 65 0 65 -65 0 -65 0 0 -65z"/>
<path d="M1540 2700 c0 -13 -7 -20 -20 -20 -15 0 -20 -7 -20 -25 0 -18 5 -25
20 -25 13 0 20 -7 20 -20 0 -13 -7 -20 -20 -20 -15 0 -20 -7 -20 -25 0 -23 4
-25 45 -25 l45 0 0 -65 c0 -58 2 -65 20 -65 18 0 20 7 20 65 0 63 1 65 25 65
18 0 25 -5 25 -20 0 -13 7 -20 20 -20 15 0 20 -7 20 -25 0 -18 -5 -25 -20 -25
-18 0 -20 -7 -20 -65 0 -58 2 -65 20 -65 15 0 20 -7 20 -25 0 -24 -2 -25 -65
-25 -58 0 -65 -2 -65 -20 0 -17 -7 -20 -45 -20 -38 0 -45 3 -45 20 0 13 7 20
20 20 15 0 20 7 20 25 0 23 4 25 45 25 38 0 45 3 45 20 0 19 -7 20 -110 20
-103 0 -110 -1 -110 -20 0 -17 7 -20 45 -20 41 0 45 -2 45 -25 0 -24 -2 -25
-70 -25 l-70 0 0 45 0 45 -110 0 c-103 0 -110 -1 -110 -20 0 -17 7 -20 45 -20
l45 0 0 -45 c0 -41 -2 -45 -25 -45 -18 0 -25 5 -25 20 0 13 -7 20 -20 20 -13
0 -20 -7 -20 -20 0 -13 7 -20 20 -20 15 0 20 -7 20 -25 0 -23 4 -25 45 -25
l45 0 0 -40 0 -40 -45 0 c-38 0 -45 3 -45 20 0 13 -7 20 -20 20 -13 0 -20 -7
-20 -20 0 -13 7 -20 20 -20 15 0 20 -7 20 -25 0 -18 -5 -25 -20 -25 -13 0 -20
-7 -20 -20 0 -13 7 -20 20 -20 15 0 20 -7 20 -25 0 -20 5 -25 25 -25 23 0 25
-4 25 -45 0 -41 -2 -45 -25 -45 -20 0 -25 5 -25 25 0 18 -5 25 -20 25 -18 0
-20 -7 -20 -70 l0 -70 45 0 c38 0 45 -3 45 -20 0 -15 -7 -20 -25 -20 -24 0
-25 -2 -25 -65 0 -58 -2 -65 -20 -65 -19 0 -20 -7 -20 -90 0 -83 1 -90 20 -90
18 0 20 7 20 65 0 63 1 65 25 65 18 0 25 -5 25 -20 0 -13 7 -20 20 -20 13 0
20 7 20 20 0 13 -7 20 -20 20 -15 0 -20 7 -20 25 0 23 4 25 45 25 38 0 45 3
45 20 0 17 -7 20 -45 20 -38 0 -45 3 -45 20 0 18 7 20 65 20 l65 0 0 -40 0
-40 45 0 c41 0 45 -2 45 -25 0 -18 -5 -25 -20 -25 -13 0 -20 -7 -20 -20 0 -13
7 -20 20 -20 15 0 20 -7 20 -25 0 -18 -5 -25 -20 -25 -13 0 -20 -7 -20 -20 0
-13 7 -20 20 -20 13 0 20 7 20 20 0 15 7 20 25 20 20 0 25 5 25 25 0 23 4 25
45 25 38 0 45 3 45 20 0 13 7 20 20 20 17 0 20 -7 20 -45 0 -38 -3 -45 -20
-45 -13 0 -20 -7 -20 -20 0 -17 -7 -20 -45 -20 l-45 0 0 -45 c0 -38 3 -45 20
-45 15 0 20 -7 20 -25 0 -18 -5 -25 -20 -25 -19 0 -20 -7 -20 -110 0 -103 1
-110 20 -110 18 0 20 7 20 65 0 63 1 65 25 65 18 0 25 -5 25 -20 0 -13 7 -20
20 -20 17 0 20 -7 20 -45 0 -41 2 -45 25 -45 23 0 25 4 25 45 0 38 3 45 20 45
13 0 20 7 20 20 0 17 -7 20 -45 20 l-45 0 0 90 c0 83 -1 90 -20 90 -15 0 -20
7 -20 25 0 23 4 25 45 25 41 0 45 -2 45 -25 0 -18 5 -25 20 -25 13 0 20 -7 20
-20 0 -13 -7 -20 -20 -20 -17 0 -20 -7 -20 -45 0 -38 3 -45 20 -45 13 0 20 7
20 20 0 13 7 20 20 20 13 0 20 -7 20 -20 0 -17 7 -20 45 -20 41 0 45 -2 45
-25 0 -18 -5 -25 -20 -25 -13 0 -20 -7 -20 -20 0 -15 -7 -20 -25 -20 -20 0
-25 -5 -25 -25 0 -24 2 -25 70 -25 63 0 70 -2 70 -20 0 -18 7 -20 65 -20 58 0
65 2 65 20 0 17 7 20 45 20 38 0 45 -3 45 -20 0 -15 7 -20 25 -20 18 0 25 5
25 20 0 17 7 20 40 20 33 0 40 -3 40 -20 0 -18 7 -20 70 -20 63 0 70 2 70 20
0 13 7 20 20 20 13 0 20 -7 20 -20 0 -15 7 -20 25 -20 18 0 25 5 25 20 0 18 7
20 65 20 58 0 65 -2 65 -20 0 -19 7 -20 90 -20 l90 0 0 90 0 90 -45 0 c-38 0
-45 3 -45 20 0 15 7 20 25 20 20 0 25 5 25 25 0 18 5 25 20 25 13 0 20 7 20
20 0 17 -7 20 -45 20 l-45 0 0 -45 0 -45 -45 0 -45 0 0 70 0 70 45 0 c38 0 45
3 45 20 0 17 -7 20 -45 20 -41 0 -45 2 -45 25 0 24 2 25 70 25 68 0 70 -1 70
-25 0 -18 5 -25 20 -25 17 0 20 7 20 45 0 38 -3 45 -20 45 -15 0 -20 7 -20 25
0 18 5 25 20 25 18 0 20 7 20 65 0 58 -2 65 -20 65 -13 0 -20 7 -20 20 0 13 7
20 20 20 18 0 20 7 20 70 0 63 -2 70 -20 70 -13 0 -20 7 -20 20 0 13 7 20 20
20 18 0 20 7 20 70 0 63 -2 70 -20 70 -13 0 -20 7 -20 20 0 13 7 20 20 20 13
0 20 7 20 20 0 13 -7 20 -20 20 -15 0 -20 7 -20 25 0 18 5 25 20 25 13 0 20 7
20 20 0 13 -7 20 -20 20 -17 0 -20 7 -20 45 0 41 -2 45 -25 45 -18 0 -25 -5
-25 -20 0 -13 -7 -20 -20 -20 -13 0 -20 7 -20 20 0 15 -7 20 -25 20 -25 0 -25
-1 -25 -90 0 -83 -1 -90 -20 -90 -13 0 -20 -7 -20 -20 0 -15 -7 -20 -25 -20
-23 0 -25 4 -25 45 0 41 2 45 25 45 24 0 25 2 25 65 0 63 -1 65 -25 65 -24 0
-25 -2 -25 -65 0 -58 -2 -65 -20 -65 -13 0 -20 7 -20 20 0 15 -7 20 -25 20
-20 0 -25 5 -25 25 0 20 5 25 25 25 18 0 25 5 25 20 0 15 -7 20 -25 20 -23 0
-25 4 -25 45 0 38 -3 45 -20 45 -15 0 -20 7 -20 25 0 18 5 25 20 25 13 0 20 7
20 20 0 13 -7 20 -20 20 -13 0 -20 -7 -20 -20 0 -15 -7 -20 -25 -20 -20 0 -25
-5 -25 -25 0 -18 -5 -25 -20 -25 -17 0 -20 -7 -20 -45 0 -41 -2 -45 -25 -45
-23 0 -25 4 -25 45 0 38 -3 45 -20 45 -18 0 -20 -7 -20 -65 0 -58 -2 -65 -20
-65 -18 0 -20 7 -20 65 0 63 -1 65 -25 65 -18 0 -25 -5 -25 -20 0 -13 -7 -20
-20 -20 -17 0 -20 7 -20 45 l0 45 65 0 c58 0 65 2 65 20 0 13 -7 20 -20 20
-15 0 -20 7 -20 25 0 18 5 25 20 25 13 0 20 7 20 20 0 17 7 20 45 20 38 0 45
-3 45 -20 0 -15 -7 -20 -25 -20 -20 0 -25 -5 -25 -25 0 -23 4 -25 45 -25 41 0
45 2 45 25 0 20 5 25 25 25 18 0 25 5 25 20 0 13 7 20 20 20 17 0 20 7 20 45
0 38 -3 45 -20 45 -13 0 -20 -7 -20 -20 0 -15 -7 -20 -25 -20 -20 0 -25 -5
-25 -25 0 -18 -5 -25 -20 -25 -15 0 -20 7 -20 25 0 23 -4 25 -45 25 -38 0 -45
3 -45 20 0 13 -7 20 -20 20 -13 0 -20 -7 -20 -20 0 -13 7 -20 20 -20 15 0 20
-7 20 -25 0 -23 -4 -25 -45 -25 l-45 0 0 45 c0 38 -3 45 -20 45 -13 0 -20 -7
-20 -20 0 -15 -7 -20 -25 -20 -18 0 -25 5 -25 20 0 19 -7 20 -90 20 -83 0 -90
-1 -90 -20 0 -17 -7 -20 -45 -20 l-45 0 0 -45 c0 -38 -3 -45 -20 -45 -15 0
-20 -7 -20 -25 0 -18 -5 -25 -20 -25 -17 0 -20 7 -20 45 0 38 3 45 20 45 15 0
20 7 20 25 0 23 -4 25 -45 25 -41 0 -45 -2 -45 -25 0 -18 -5 -25 -20 -25 -17
0 -20 7 -20 45 0 41 -2 45 -25 45 -18 0 -25 -5 -25 -20z m490 -45 c0 -20 5
-25 25 -25 18 0 25 -5 25 -20 0 -13 7 -20 20 -20 15 0 20 -7 20 -25 0 -18 -5
-25 -20 -25 -15 0 -20 7 -20 25 0 20 -5 25 -25 25 -20 0 -25 -5 -25 -25 0 -23
-4 -25 -45 -25 l-45 0 0 -65 c0 -63 1 -65 25 -65 23 0 25 4 25 45 0 38 3 45
20 45 18 0 20 -7 20 -70 l0 -70 45 0 c38 0 45 -3 45 -20 0 -15 7 -20 25 -20
20 0 25 -5 25 -25 0 -18 5 -25 20 -25 15 0 20 7 20 25 0 23 4 25 45 25 l45 0
0 -45 c0 -38 3 -45 20 -45 15 0 20 -7 20 -25 0 -20 5 -25 25 -25 20 0 25 5 25
25 0 18 5 25 20 25 17 0 20 -7 20 -45 0 -38 -3 -45 -20 -45 -13 0 -20 -7 -20
-20 0 -17 7 -20 45 -20 38 0 45 3 45 20 0 13 7 20 20 20 13 0 20 -7 20 -20 0
-13 -7 -20 -20 -20 -18 0 -20 -7 -20 -70 0 -63 2 -70 20 -70 17 0 20 7 20 45
l0 45 45 0 c41 0 45 2 45 25 0 18 -5 25 -20 25 -13 0 -20 7 -20 20 0 17 7 20
45 20 l45 0 0 -45 0 -45 45 0 45 0 0 -45 c0 -41 -2 -45 -25 -45 -20 0 -25 5
-25 25 0 18 -5 25 -20 25 -13 0 -20 7 -20 20 0 15 -7 20 -25 20 -18 0 -25 -5
-25 -20 0 -13 -7 -20 -20 -20 -15 0 -20 -7 -20 -25 0 -23 4 -25 45 -25 l45 0
0 -45 0 -45 45 0 c38 0 45 -3 45 -20 0 -19 -7 -20 -90 -20 -89 0 -90 0 -90
-25 0 -24 2 -25 65 -25 58 0 65 -2 65 -20 0 -17 -7 -20 -45 -20 -41 0 -45 -2
-45 -25 0 -24 2 -25 70 -25 63 0 70 -2 70 -20 0 -17 -7 -20 -45 -20 -38 0 -45
-3 -45 -20 0 -13 7 -20 20 -20 15 0 20 -7 20 -25 0 -18 -5 -25 -20 -25 -15 0
-20 7 -20 25 0 20 -5 25 -25 25 -20 0 -25 -5 -25 -25 0 -18 -5 -25 -20 -25
-15 0 -20 7 -20 25 0 20 -5 25 -25 25 -20 0 -25 -5 -25 -25 0 -18 -5 -25 -20
-25 -13 0 -20 -7 -20 -20 0 -13 7 -20 20 -20 15 0 20 -7 20 -25 0 -25 -1 -25
-90 -25 -89 0 -90 0 -90 25 0 23 4 25 45 25 38 0 45 3 45 20 0 15 7 20 25 20
20 0 25 5 25 25 0 18 5 25 20 25 13 0 20 7 20 20 0 13 -7 20 -20 20 -17 0 -20
7 -20 45 0 41 -2 45 -25 45 -18 0 -25 5 -25 20 0 17 7 20 45 20 41 0 45 2 45
25 0 25 -1 25 -90 25 -83 0 -90 1 -90 20 0 15 7 20 25 20 20 0 25 5 25 25 0
23 -4 25 -45 25 -38 0 -45 3 -45 20 0 17 7 20 45 20 38 0 45 -3 45 -20 0 -13
7 -20 20 -20 18 0 20 7 20 65 0 58 -2 65 -20 65 -15 0 -20 7 -20 25 0 20 -5
25 -25 25 -20 0 -25 -5 -25 -25 0 -18 -5 -25 -20 -25 -13 0 -20 -7 -20 -20 0
-17 -7 -20 -45 -20 -38 0 -45 3 -45 20 0 13 -7 20 -20 20 -13 0 -20 -7 -20
-20 0 -15 -7 -20 -25 -20 -20 0 -25 -5 -25 -25 0 -20 5 -25 25 -25 18 0 25 -5
25 -20 0 -13 7 -20 20 -20 17 0 20 -7 20 -45 0 -38 3 -45 20 -45 13 0 20 7 20
20 0 15 7 20 25 20 18 0 25 -5 25 -20 0 -15 -7 -20 -25 -20 -20 0 -25 -5 -25
-25 0 -22 -4 -25 -40 -25 l-40 0 0 45 c0 41 -2 45 -25 45 -20 0 -25 5 -25 25
0 18 -5 25 -20 25 -17 0 -20 7 -20 45 0 38 3 45 20 45 13 0 20 7 20 20 0 17
-7 20 -45 20 l-45 0 0 -45 c0 -38 -3 -45 -20 -45 -17 0 -20 7 -20 45 0 41 -2
45 -25 45 -18 0 -25 -5 -25 -20 0 -13 -7 -20 -20 -20 -15 0 -20 -7 -20 -25 0
-20 -5 -25 -25 -25 -18 0 -25 -5 -25 -20 0 -13 -7 -20 -20 -20 -18 0 -20 -7
-20 -70 0 -63 2 -70 20 -70 13 0 20 -7 20 -20 0 -15 7 -20 25 -20 18 0 25 5
25 20 0 13 7 20 20 20 15 0 20 7 20 25 0 18 -5 25 -20 25 -17 0 -20 7 -20 45
l0 45 65 0 c63 0 65 -1 65 -25 0 -20 5 -25 25 -25 18 0 25 -5 25 -20 0 -13 7
-20 20 -20 15 0 20 -7 20 -25 0 -23 -4 -25 -45 -25 -41 0 -45 2 -45 25 0 18
-5 25 -20 25 -15 0 -20 -7 -20 -25 0 -20 -5 -25 -25 -25 -18 0 -25 -5 -25 -20
0 -18 7 -20 70 -20 l70 0 0 -45 c0 -38 3 -45 20 -45 17 0 20 7 20 45 l0 45 45
0 c41 0 45 -2 45 -25 0 -24 2 -25 65 -25 l65 0 0 -40 c0 -36 3 -40 25 -40 18
0 25 5 25 20 0 13 7 20 20 20 13 0 20 -7 20 -20 0 -13 -7 -20 -20 -20 -15 0
-20 -7 -20 -25 0 -23 -4 -25 -45 -25 l-45 0 0 45 c0 41 -2 45 -25 45 -18 0
-25 -5 -25 -20 0 -17 -7 -20 -40 -20 -33 0 -40 3 -40 20 0 15 -7 20 -25 20
-18 0 -25 -5 -25 -20 0 -13 -7 -20 -20 -20 -13 0 -20 7 -20 20 0 15 -7 20 -25
20 -18 0 -25 -5 -25 -20 0 -17 -7 -20 -45 -20 l-45 0 0 -45 c0 -41 2 -45 25
-45 18 0 25 5 25 20 0 13 7 20 20 20 13 0 20 -7 20 -20 0 -13 -7 -20 -20 -20
-18 0 -20 -7 -20 -70 0 -63 2 -70 20 -70 13 0 20 -7 20 -20 0 -17 -7 -20 -45
-20 -41 0 -45 -2 -45 -25 0 -25 1 -25 90 -25 83 0 90 -1 90 -20 0 -15 7 -20
25 -20 20 0 25 -5 25 -25 0 -18 5 -25 20 -25 15 0 20 7 20 25 0 25 1 25 90 25
l90 0 0 -45 0 -45 -45 0 c-41 0 -45 -2 -45 -25 0 -20 -5 -25 -25 -25 -20 0
-25 5 -25 25 0 24 -2 25 -65 25 l-65 0 0 45 0 45 -90 0 -90 0 0 -45 c0 -41 2
-45 25 -45 18 0 25 5 25 20 0 17 7 20 45 20 38 0 45 -3 45 -20 0 -15 -7 -20
-25 -20 -20 0 -25 -5 -25 -25 0 -24 -2 -25 -65 -25 l-65 0 0 70 c0 63 2 70 20
70 13 0 20 7 20 20 0 19 -7 20 -90 20 -89 0 -90 0 -90 25 0 24 2 25 70 25 l70
0 0 45 c0 38 3 45 20 45 13 0 20 7 20 20 0 13 -7 20 -20 20 -15 0 -20 7 -20
25 0 20 -5 25 -25 25 -18 0 -25 5 -25 20 0 13 -7 20 -20 20 -13 0 -20 -7 -20
-20 0 -15 -7 -20 -25 -20 -20 0 -25 -5 -25 -25 0 -20 5 -25 25 -25 18 0 25 -5
25 -20 0 -13 7 -20 20 -20 15 0 20 -7 20 -25 0 -18 -5 -25 -20 -25 -15 0 -20
7 -20 25 0 24 -2 25 -65 25 l-65 0 0 45 c0 38 3 45 20 45 13 0 20 7 20 20 0
17 -7 20 -45 20 -41 0 -45 2 -45 25 0 23 -4 25 -45 25 -41 0 -45 -2 -45 -25 0
-18 -5 -25 -20 -25 -13 0 -20 -7 -20 -20 0 -15 -7 -20 -25 -20 -18 0 -25 5
-25 20 0 15 7 20 25 20 20 0 25 5 25 25 0 20 -5 25 -25 25 -18 0 -25 5 -25 20
0 13 -7 20 -20 20 -13 0 -20 7 -20 20 0 15 -7 20 -25 20 -23 0 -25 4 -25 45 0
38 -3 45 -20 45 -13 0 -20 -7 -20 -20 0 -15 -7 -20 -25 -20 -18 0 -25 5 -25
20 0 13 -7 20 -20 20 -17 0 -20 7 -20 45 0 38 3 45 20 45 17 0 20 7 20 45 0
41 2 45 25 45 18 0 25 -5 25 -20 0 -13 7 -20 20 -20 17 0 20 7 20 45 0 38 -3
45 -20 45 -13 0 -20 7 -20 20 0 15 -7 20 -25 20 -18 0 -25 -5 -25 -20 0 -17
-7 -20 -45 -20 -38 0 -45 3 -45 20 0 17 7 20 45 20 41 0 45 2 45 25 0 20 5 25
25 25 18 0 25 5 25 20 0 13 7 20 20 20 17 0 20 7 20 45 0 38 -3 45 -20 45 -15
0 -20 -7 -20 -25 0 -20 -5 -25 -25 -25 -23 0 -25 4 -25 45 l0 45 45 0 c38 0
45 -3 45 -20 0 -18 7 -20 70 -20 68 0 70 -1 70 -25 0 -23 -4 -25 -45 -25 -38
0 -45 -3 -45 -20 0 -13 7 -20 20 -20 13 0 20 -7 20 -20 0 -15 7 -20 25 -20 23
0 25 -4 25 -45 0 -38 3 -45 20 -45 15 0 20 -7 20 -25 0 -23 4 -25 45 -25 41 0
45 2 45 25 0 18 -5 25 -20 25 -13 0 -20 7 -20 20 0 15 -7 20 -25 20 -20 0 -25
5 -25 25 0 23 4 25 45 25 38 0 45 3 45 20 0 15 7 20 25 20 23 0 25 4 25 45 0
38 3 45 20 45 13 0 20 7 20 20 0 13 7 20 20 20 17 0 20 7 20 45 0 38 -3 45
-20 45 -17 0 -20 7 -20 45 0 38 3 45 20 45 15 0 20 7 20 25 0 18 -5 25 -20 25
-13 0 -20 7 -20 20 0 13 7 20 20 20 13 0 20 -7 20 -20 0 -15 7 -20 25 -20 18
0 25 5 25 20 0 13 7 20 20 20 13 0 20 -7 20 -20 0 -13 -7 -20 -20 -20 -15 0
-20 -7 -20 -25 0 -18 5 -25 20 -25 13 0 20 -7 20 -20 0 -13 -7 -20 -20 -20
-13 0 -20 7 -20 20 0 15 -7 20 -25 20 -23 0 -25 -4 -25 -45 0 -41 2 -45 25
-45 18 0 25 -5 25 -20 0 -13 7 -20 20 -20 15 0 20 -7 20 -25 0 -20 5 -25 25
-25 18 0 25 -5 25 -20 0 -13 7 -20 20 -20 13 0 20 7 20 20 0 19 7 20 90 20 89
0 90 0 90 25 0 23 -4 25 -45 25 -38 0 -45 3 -45 20 0 13 -7 20 -20 20 -13 0
-20 -7 -20 -20 0 -15 -7 -20 -25 -20 -18 0 -25 5 -25 20 0 13 -7 20 -20 20
-19 0 -20 7 -20 90 0 83 1 90 20 90 15 0 20 7 20 25 0 24 -2 25 -65 25 -58 0
-65 2 -65 20 0 13 7 20 20 20 15 0 20 7 20 25 0 25 1 25 90 25 89 0 90 0 90
-25z m-400 -90 c0 -18 -5 -25 -20 -25 -15 0 -20 7 -20 25 0 18 5 25 20 25 15
0 20 -7 20 -25z m760 -160 c0 -38 3 -45 20 -45 13 0 20 -7 20 -20 0 -13 -7
-20 -20 -20 -15 0 -20 -7 -20 -25 0 -20 -5 -25 -25 -25 -20 0 -25 5 -25 25 0
20 5 25 25 25 18 0 25 5 25 20 0 15 -7 20 -25 20 -23 0 -25 4 -25 45 0 41 2
45 25 45 23 0 25 -4 25 -45z m360 -155 c0 -15 -7 -20 -25 -20 -20 0 -25 -5
-25 -25 0 -20 5 -25 25 -25 18 0 25 -5 25 -20 0 -15 -7 -20 -25 -20 -18 0 -25
5 -25 20 0 13 -7 20 -20 20 -15 0 -20 7 -20 25 0 18 5 25 20 25 13 0 20 7 20
20 0 15 7 20 25 20 18 0 25 -5 25 -20z m-1160 -90 c0 -15 -7 -20 -25 -20 -18
0 -25 5 -25 20 0 15 7 20 25 20 18 0 25 -5 25 -20z m800 -400 c0 -17 -7 -20
-45 -20 -38 0 -45 3 -45 20 0 17 7 20 45 20 38 0 45 -3 45 -20z m-180 -245 c0
-38 -3 -45 -20 -45 -17 0 -20 -7 -20 -45 0 -38 3 -45 20 -45 15 0 20 7 20 25
0 18 5 25 20 25 17 0 20 7 20 45 0 41 2 45 25 45 23 0 25 -4 25 -45 0 -38 3
-45 20 -45 15 0 20 -7 20 -25 0 -20 5 -25 25 -25 23 0 25 -4 25 -45 l0 -45
-70 0 c-68 0 -70 1 -70 25 0 18 -5 25 -20 25 -15 0 -20 -7 -20 -25 0 -18 -5
-25 -20 -25 -17 0 -20 7 -20 45 l0 45 -45 0 c-41 0 -45 2 -45 25 0 20 -5 25
-25 25 -18 0 -25 5 -25 20 0 17 7 20 45 20 41 0 45 2 45 25 0 20 5 25 25 25
18 0 25 5 25 20 0 13 7 20 20 20 17 0 20 -7 20 -45z m360 -155 l0 -70 -70 0
-70 0 0 70 0 70 70 0 70 0 0 -70z m-980 0 c0 -15 -7 -20 -25 -20 -18 0 -25 5
-25 20 0 15 7 20 25 20 18 0 25 -5 25 -20z m0 -90 c0 -15 -7 -20 -25 -20 -18
0 -25 5 -25 20 0 15 7 20 25 20 18 0 25 -5 25 -20z m980 -45 c0 -18 5 -25 20
-25 15 0 20 7 20 25 0 23 4 25 45 25 l45 0 0 -45 c0 -41 2 -45 25 -45 20 0 25
-5 25 -25 0 -24 -2 -25 -70 -25 -68 0 -70 1 -70 25 0 18 -5 25 -20 25 -13 0
-20 7 -20 20 0 15 -7 20 -25 20 -18 0 -25 -5 -25 -20 0 -17 -7 -20 -45 -20
-38 0 -45 3 -45 20 0 17 7 20 45 20 41 0 45 2 45 25 0 20 5 25 25 25 20 0 25
-5 25 -25z"/>
<path d="M1990 2610 c0 -13 7 -20 20 -20 13 0 20 7 20 20 0 13 -7 20 -20 20
-13 0 -20 -7 -20 -20z"/>
<path d="M1760 2225 c0 -38 -3 -45 -20 -45 -13 0 -20 -7 -20 -20 0 -13 -7 -20
-20 -20 -13 0 -20 -7 -20 -20 0 -13 7 -20 20 -20 15 0 20 -7 20 -25 0 -18 -5
-25 -20 -25 -17 0 -20 -7 -20 -45 0 -38 3 -45 20 -45 13 0 20 -7 20 -20 0 -18
-7 -20 -65 -20 -63 0 -65 -1 -65 -25 0 -18 5 -25 20 -25 17 0 20 -7 20 -45 0
-38 -3 -45 -20 -45 -17 0 -20 -7 -20 -45 0 -38 3 -45 20 -45 17 0 20 7 20 45
0 41 2 45 25 45 18 0 25 -5 25 -20 0 -13 7 -20 20 -20 15 0 20 -7 20 -25 0
-18 -5 -25 -20 -25 -17 0 -20 -7 -20 -40 0 -33 3 -40 20 -40 13 0 20 7 20 20
0 13 7 20 20 20 13 0 20 -7 20 -20 0 -17 7 -20 45 -20 41 0 45 -2 45 -25 0
-20 5 -25 25 -25 20 0 25 5 25 25 0 18 5 25 20 25 13 0 20 7 20 20 0 17 7 20
45 20 38 0 45 3 45 20 0 17 -7 20 -45 20 -38 0 -45 -3 -45 -20 0 -19 -7 -20
-90 -20 -83 0 -90 1 -90 20 0 17 7 20 45 20 41 0 45 2 45 25 0 23 -4 25 -45
25 -38 0 -45 3 -45 20 0 17 -7 20 -40 20 l-40 0 0 45 c0 38 3 45 20 45 15 0
20 7 20 25 0 23 4 25 45 25 38 0 45 3 45 20 0 13 7 20 20 20 15 0 20 7 20 25
0 18 -5 25 -20 25 -15 0 -20 -7 -20 -25 0 -20 -5 -25 -25 -25 -20 0 -25 5 -25
25 0 18 -5 25 -20 25 -13 0 -20 7 -20 20 0 19 7 20 90 20 l90 0 0 45 c0 38 3
45 20 45 13 0 20 -7 20 -20 0 -19 7 -20 135 -20 128 0 135 1 135 20 0 13 7 20
20 20 13 0 20 -7 20 -20 0 -15 7 -20 25 -20 18 0 25 5 25 20 0 13 7 20 20 20
13 0 20 7 20 20 0 17 -7 20 -45 20 l-45 0 0 45 c0 38 -3 45 -20 45 -13 0 -20
-7 -20 -20 0 -18 -7 -20 -65 -20 -63 0 -65 -1 -65 -25 0 -18 5 -25 20 -25 13
0 20 -7 20 -20 0 -17 -7 -20 -45 -20 -38 0 -45 3 -45 20 0 13 -7 20 -20 20
-15 0 -20 7 -20 25 0 20 -5 25 -25 25 -20 0 -25 -5 -25 -25 0 -18 -5 -25 -20
-25 -15 0 -20 7 -20 25 0 20 -5 25 -25 25 -18 0 -25 5 -25 20 0 17 -7 20 -45
20 l-45 0 0 -45z m230 -65 c0 -15 -7 -20 -25 -20 -18 0 -25 5 -25 20 0 15 7
20 25 20 18 0 25 -5 25 -20z m-230 -40 c0 -13 -7 -20 -20 -20 -13 0 -20 7 -20
20 0 13 7 20 20 20 13 0 20 -7 20 -20z m90 0 c0 -13 -7 -20 -20 -20 -13 0 -20
7 -20 20 0 13 7 20 20 20 13 0 20 -7 20 -20z"/>
<path d="M1360 2075 c0 -23 4 -25 45 -25 41 0 45 2 45 25 0 23 -4 25 -45 25
-41 0 -45 -2 -45 -25z"/>
<path d="M1410 1985 c0 -23 4 -25 45 -25 l45 0 0 -45 c0 -38 3 -45 20 -45 17
0 20 7 20 45 0 38 -3 45 -20 45 -15 0 -20 7 -20 25 0 23 -4 25 -45 25 -41 0
-45 -2 -45 -25z"/>
<path d="M2520 1895 c0 -63 1 -65 25 -65 24 0 25 2 25 65 0 63 -1 65 -25 65
-24 0 -25 -2 -25 -65z"/>
<path d="M1410 1895 c0 -23 -4 -25 -45 -25 -38 0 -45 -3 -45 -20 0 -15 -7 -20
-25 -20 -20 0 -25 -5 -25 -25 0 -20 5 -25 25 -25 20 0 25 5 25 25 0 18 5 25
20 25 15 0 20 -7 20 -25 0 -23 4 -25 45 -25 38 0 45 -3 45 -20 0 -13 -7 -20
-20 -20 -15 0 -20 -7 -20 -25 0 -18 5 -25 20 -25 13 0 20 -7 20 -20 0 -17 7
-20 45 -20 38 0 45 3 45 20 0 13 -7 20 -20 20 -18 0 -20 7 -20 70 l0 70 -45 0
c-38 0 -45 3 -45 20 0 13 7 20 20 20 15 0 20 7 20 25 0 18 -5 25 -20 25 -15 0
-20 -7 -20 -25z"/>
<path d="M2430 1895 c0 -20 5 -25 25 -25 20 0 25 5 25 25 0 20 -5 25 -25 25
-20 0 -25 -5 -25 -25z"/>
<path d="M2520 1760 c0 -15 7 -20 25 -20 18 0 25 5 25 20 0 15 -7 20 -25 20
-18 0 -25 -5 -25 -20z"/>
<path d="M2170 1670 c0 -13 7 -20 20 -20 13 0 20 7 20 20 0 13 -7 20 -20 20
-13 0 -20 -7 -20 -20z"/>
<path d="M2520 1670 c0 -15 7 -20 25 -20 18 0 25 -5 25 -20 0 -13 7 -20 20
-20 13 0 20 7 20 20 0 13 -7 20 -20 20 -13 0 -20 7 -20 20 0 15 -7 20 -25 20
-18 0 -25 -5 -25 -20z"/>
<path d="M2250 1360 c0 -17 7 -20 45 -20 38 0 45 3 45 20 0 17 -7 20 -45 20
-38 0 -45 -3 -45 -20z"/>
<path d="M2480 1360 c0 -13 7 -20 20 -20 13 0 20 7 20 20 0 13 -7 20 -20 20
-13 0 -20 -7 -20 -20z"/>
<path d="M2480 2565 l0 -155 155 0 155 0 0 155 0 155 -155 0 -155 0 0 -155z
m270 0 l0 -115 -115 0 -115 0 0 115 0 115 115 0 115 0 0 -115z"/>
<path d="M2570 2565 l0 -65 65 0 65 0 0 65 0 65 -65 0 -65 0 0 -65z"/>
<path d="M1500 2455 c0 -38 3 -45 20 -45 17 0 20 7 20 45 0 38 -3 45 -20 45
-17 0 -20 -7 -20 -45z"/>
<path d="M6355 1925 c-51 -51 -17 -145 53 -145 16 0 35 -7 42 -15 7 -8 19 -15
28 -15 13 0 13 2 -2 18 -15 17 -15 22 -1 56 19 44 11 80 -22 106 -34 27 -69
25 -98 -5z m89 -17 c21 -30 20 -61 -3 -89 -16 -20 -23 -22 -47 -14 -25 9 -29
16 -32 51 -5 67 49 100 82 52z"/>
<path d="M6635 1940 c-7 -12 2 -30 16 -30 5 0 9 9 9 20 0 21 -15 27 -25 10z"/>
<path d="M7090 1865 l0 -85 46 0 c53 0 58 23 6 28 l-32 3 0 70 c0 39 -4 69
-10 69 -6 0 -10 -35 -10 -85z"/>
<path d="M6510 1845 c0 -30 3 -56 8 -56 4 -1 24 -3 45 -4 l37 -2 0 58 c0 70
-18 79 -22 12 -3 -40 -6 -48 -23 -48 -17 0 -20 8 -23 48 -4 65 -22 59 -22 -8z"/>
<path d="M6640 1840 c0 -33 4 -60 10 -60 6 0 10 27 10 60 0 33 -4 60 -10 60
-6 0 -10 -27 -10 -60z"/>
<path d="M6690 1839 c0 -45 3 -59 14 -59 11 0 16 14 18 47 2 36 7 49 21 51 14
3 17 -4 17 -47 0 -39 4 -51 15 -51 11 0 15 12 15 49 0 57 -11 69 -62 69 l-38
0 0 -59z"/>
<path d="M6826 1878 c-9 -12 -16 -29 -16 -38 0 -30 31 -61 58 -58 36 4 41 27
5 25 -26 -2 -28 1 -28 33 0 32 2 35 28 33 36 -2 31 21 -5 25 -18 2 -31 -4 -42
-20z"/>
<path d="M6935 1843 c17 -43 21 -63 13 -76 -11 -20 -3 -36 11 -21 13 14 63
146 57 151 -10 10 -25 -8 -31 -37 -9 -39 -18 -38 -34 5 -7 19 -18 35 -26 35
-10 0 -8 -14 10 -57z"/>
<path d="M7213 1893 c-23 -9 -14 -22 13 -20 37 3 41 -20 5 -28 -62 -13 -45
-65 21 -62 l40 1 -5 49 c-5 59 -29 79 -74 60z m47 -73 c0 -12 -28 -25 -36 -17
-9 9 6 27 22 27 8 0 14 -5 14 -10z"/>
<path d="M7310 1839 c0 -46 3 -59 15 -59 11 0 15 12 15 46 0 37 4 47 20 51 32
8 23 21 -15 21 l-35 0 0 -59z"/>
<path d="M7413 1894 c-7 -3 -13 -16 -13 -30 0 -17 7 -25 25 -30 14 -3 25 -13
25 -21 0 -11 -7 -13 -26 -9 -19 5 -25 3 -22 -6 8 -23 55 -22 68 2 13 25 6 38
-27 51 -28 10 -21 33 9 26 12 -4 18 -1 15 6 -4 13 -35 19 -54 11z"/>
<path d="M7506 1878 c-9 -12 -16 -29 -16 -38 0 -27 30 -60 54 -60 49 0 75 70
38 103 -26 23 -58 21 -76 -5z m59 -38 c0 -28 -4 -35 -20 -35 -13 0 -21 8 -23
23 -5 34 5 54 25 50 13 -2 18 -13 18 -38z"/>
<path d="M7620 1839 c0 -45 3 -59 14 -59 11 0 16 14 18 47 2 36 7 49 21 51 14
3 17 -4 17 -47 0 -39 4 -51 15 -51 11 0 15 12 15 49 0 57 -11 69 -62 69 l-38
0 0 -59z"/>
<path d="M5470 1560 l0 -70 43 1 42 2 -35 6 c-29 5 -36 11 -38 33 -3 23 1 27
30 31 l33 4 -33 1 c-29 2 -33 5 -30 25 2 16 12 24 38 28 l35 6 -42 2 -43 1 0
-70z"/>
<path d="M6020 1620 c0 -5 5 -10 10 -10 6 0 10 5 10 10 0 6 -4 10 -10 10 -5 0
-10 -4 -10 -10z"/>
<path d="M6300 1560 l0 -70 33 0 c51 0 77 24 77 70 0 46 -26 70 -77 70 l-33 0
0 -70z m71 50 c14 -8 19 -21 19 -51 0 -32 -4 -41 -24 -51 -41 -18 -56 -5 -56
50 0 64 15 76 61 52z"/>
<path d="M7063 1613 c-4 -10 -11 -21 -17 -25 -7 -5 -7 -8 2 -8 7 0 13 -17 14
-47 1 -47 1 -47 5 -8 2 22 11 46 20 53 16 11 16 12 0 12 -22 0 -22 16 1 29 16
10 16 10 -1 11 -10 0 -21 -8 -24 -17z"/>
<path d="M7409 1612 c-48 -40 -16 -126 45 -120 16 2 31 10 34 18 4 12 2 13 -9
3 -19 -18 -36 -16 -59 7 -42 42 -6 107 53 95 24 -5 28 -4 17 4 -23 16 -55 13
-81 -7z"/>
<path d="M7680 1606 c0 -18 -4 -23 -18 -19 -26 6 -44 -20 -40 -59 3 -31 5 -33
41 -33 l37 -1 0 68 c0 39 -4 68 -10 68 -5 0 -10 -11 -10 -24z m-2 -60 c4 -36
-12 -54 -33 -36 -18 15 -20 41 -3 58 18 18 33 9 36 -22z"/>
<path d="M7840 1610 c-39 -39 -12 -120 39 -120 27 0 51 10 51 21 0 6 -8 5 -19
-1 -11 -5 -24 -10 -30 -10 -19 0 -41 32 -41 60 0 41 25 62 64 55 23 -5 27 -4
16 4 -24 17 -58 13 -80 -9z"/>
<path d="M5961 1608 c0 -10 -5 -18 -10 -18 -8 0 -6 -23 5 -77 5 -24 28 -31 39
-13 4 6 1 9 -7 8 -8 -2 -14 10 -16 34 -2 28 1 37 15 41 15 4 16 5 1 6 -9 0
-19 9 -21 19 -4 16 -5 16 -6 0z"/>
<path d="M6749 1605 c-9 -40 5 -110 24 -113 9 -2 17 1 17 7 0 6 -6 10 -12 9
-21 -5 -22 54 -2 69 16 11 16 13 2 13 -9 0 -18 8 -20 18 -3 15 -4 14 -9 -3z"/>
<path d="M5576 1565 c15 -23 15 -27 0 -50 -9 -14 -12 -25 -7 -25 6 0 15 9 21
20 11 21 11 21 30 -2 22 -26 25 -20 8 17 -9 19 -9 28 0 37 7 7 12 17 12 23 -1
5 -9 0 -20 -13 -19 -23 -19 -23 -30 -2 -6 11 -15 20 -21 20 -5 0 -2 -11 7 -25z"/>
<path d="M5665 1574 c-18 -18 -13 -63 8 -76 18 -11 45 -9 53 4 5 8 2 9 -9 5
-22 -8 -47 2 -47 19 0 9 12 14 35 14 38 0 40 2 25 31 -13 23 -43 25 -65 3z
m53 -12 c2 -7 -7 -12 -22 -12 -27 0 -35 15 -13 23 17 7 30 3 35 -11z"/>
<path d="M5766 1574 c-9 -8 -16 -24 -16 -34 0 -21 25 -50 43 -50 7 0 19 5 27
11 13 9 12 10 -2 5 -29 -9 -48 4 -48 34 0 27 22 46 41 34 5 -3 9 0 9 5 0 17
-37 13 -54 -5z"/>
<path d="M5840 1551 c0 -45 14 -60 52 -58 27 2 28 4 26 52 -1 42 -2 44 -5 13
-8 -70 -53 -76 -53 -7 0 21 -4 39 -10 39 -5 0 -10 -17 -10 -39z"/>
<path d="M6020 1540 c0 -27 5 -50 10 -50 6 0 10 23 10 50 0 28 -4 50 -10 50
-5 0 -10 -22 -10 -50z"/>
<path d="M6060 1581 c0 -18 32 -91 40 -91 10 0 44 90 36 97 -5 6 -26 -39 -26
-58 0 -22 -19 -6 -25 21 -6 29 -25 52 -25 31z"/>
<path d="M6165 1574 c-18 -18 -13 -63 8 -76 18 -11 45 -9 53 4 5 8 2 9 -9 5
-22 -8 -47 2 -47 19 0 9 12 14 35 14 38 0 40 2 25 31 -13 23 -43 25 -65 3z
m53 -12 c2 -7 -7 -12 -22 -12 -27 0 -35 15 -13 23 17 7 30 3 35 -11z"/>
<path d="M6443 1540 c0 -30 2 -43 4 -27 2 15 2 39 0 55 -2 15 -4 2 -4 -28z"/>
<path d="M6480 1538 c0 -26 5 -48 10 -48 6 0 10 18 10 40 0 33 4 42 23 49 19
8 18 9 -10 9 -33 -1 -33 -2 -33 -50z"/>
<path d="M6566 1574 c-9 -8 -16 -24 -16 -34 0 -38 58 -67 76 -38 5 8 2 9 -9 5
-22 -8 -47 2 -47 19 0 9 11 14 30 14 23 0 30 5 30 19 0 17 -18 31 -40 31 -5 0
-16 -7 -24 -16z m52 -11 c2 -8 -6 -13 -22 -13 -25 0 -33 10 -19 24 10 10 36 3
41 -11z"/>
<path d="M6662 1578 c-7 -7 -12 -24 -12 -38 0 -14 5 -31 12 -38 15 -15 45 -16
54 -1 4 7 0 9 -14 5 -15 -5 -24 -1 -32 14 -15 28 4 64 31 57 10 -3 17 -1 13 4
-8 13 -38 11 -52 -3z"/>
<path d="M6822 1578 c-17 -17 -15 -63 3 -78 21 -17 62 -4 68 22 12 46 -40 87
-71 56z m46 -10 c28 -28 -3 -83 -33 -58 -8 7 -15 20 -15 29 0 17 18 41 30 41
3 0 11 -5 18 -12z"/>
<path d="M6922 1535 c1 -43 2 -45 5 -13 3 23 12 43 24 52 20 14 20 14 -5 12
-25 -1 -26 -4 -24 -51z"/>
<path d="M7122 1535 c1 -43 2 -45 5 -13 3 23 12 43 24 52 20 14 20 14 -5 12
-25 -1 -26 -4 -24 -51z"/>
<path d="M7201 1576 c-17 -20 -10 -66 11 -79 11 -8 23 -7 40 1 l23 12 -23 -6
c-22 -6 -52 10 -52 27 0 5 16 9 35 9 36 0 46 15 23 38 -16 16 -43 15 -57 -2z
m49 -11 c11 -13 8 -15 -20 -15 -28 0 -31 2 -20 15 7 8 16 15 20 15 4 0 13 -7
20 -15z"/>
<path d="M7301 1576 c-17 -20 -10 -66 11 -79 11 -8 23 -7 40 1 l23 12 -23 -6
c-22 -6 -52 10 -52 27 0 5 16 9 35 9 36 0 46 15 23 38 -16 16 -43 15 -57 -2z
m49 -11 c11 -13 8 -15 -20 -15 -28 0 -31 2 -20 15 7 8 16 15 20 15 4 0 13 -7
20 -15z"/>
<path d="M7526 1574 c-30 -30 -9 -84 33 -84 25 0 41 20 41 50 0 47 -42 66 -74
34z m54 -14 c14 -26 -5 -64 -27 -56 -8 3 -17 6 -19 6 -10 0 -3 59 9 63 21 9
26 7 37 -13z"/>
<path d="M7732 1578 c-7 -7 -12 -24 -12 -38 0 -14 5 -31 12 -38 15 -15 55 -16
63 -2 4 7 -2 9 -18 5 -19 -5 -28 -2 -37 14 -10 19 -8 21 25 21 22 0 35 5 35
13 0 18 -21 37 -40 37 -9 0 -21 -5 -28 -12z m48 -13 c11 -13 8 -15 -20 -15
-28 0 -31 2 -20 15 7 8 16 15 20 15 4 0 13 -7 20 -15z"/>
<path d="M7960 1580 c-12 -8 -9 -10 14 -8 39 4 44 -18 6 -26 -26 -5 -31 -10
-28 -28 2 -19 9 -23 36 -23 33 -1 33 -1 30 45 -2 36 -7 45 -23 48 -11 1 -27
-3 -35 -8z m50 -54 c0 -18 -31 -29 -44 -16 -8 8 -7 14 4 20 22 14 40 12 40 -4z"/>
<path d="M8052 1535 c1 -47 2 -47 5 -10 7 67 43 71 43 4 0 -53 18 -50 22 4 2
29 8 42 18 42 10 0 16 -13 18 -42 4 -54 22 -57 22 -4 0 47 -22 71 -50 53 -10
-6 -21 -8 -25 -4 -4 4 -18 7 -31 7 -22 1 -24 -2 -22 -50z"/>
<path d="M8201 1520 c1 -36 4 -55 6 -42 3 18 9 21 24 17 27 -9 49 12 49 45 0
34 -17 49 -52 47 -28 -2 -28 -3 -27 -67z m57 48 c28 -28 -3 -83 -33 -58 -8 7
-15 20 -15 29 0 17 18 41 30 41 3 0 11 -5 18 -12z"/>
<path d="M8352 1578 c-17 -17 -15 -63 3 -78 23 -19 62 -4 69 26 12 46 -41 83
-72 52z m46 -10 c28 -28 -3 -83 -33 -58 -8 7 -15 20 -15 29 0 17 18 41 30 41
3 0 11 -5 18 -12z"/>
<path d="M8452 1535 c1 -43 2 -45 5 -13 3 23 12 43 24 52 20 14 20 14 -5 12
-25 -1 -26 -4 -24 -51z"/>
<path d="M8532 1582 c-8 -6 -11 -22 -8 -45 2 -20 0 -39 -5 -43 -16 -9 11 -34
36 -34 26 0 50 24 40 40 -3 5 -17 10 -31 10 -13 0 -24 5 -24 10 0 6 9 10 20
10 17 0 40 32 40 56 0 7 -55 4 -68 -4z m46 -19 c5 -17 -26 -29 -40 -15 -6 6
-7 15 -3 22 9 14 37 9 43 -7z m7 -72 c7 -12 -31 -25 -45 -16 -5 3 -10 10 -10
16 0 12 47 12 55 0z"/>
<path d="M11846 1362 c-43 -108 -94 -235 -112 -280 l-33 -84 32 24 c128 97
248 179 255 174 5 -3 22 -77 37 -166 16 -88 31 -160 34 -160 5 0 170 416 216
540 4 13 -12 19 -84 33 -87 16 -179 53 -238 95 l-29 21 -78 -197z"/>
<path d="M12650 1525 c-58 -36 -184 -79 -262 -90 l-48 -6 13 -32 c8 -18 58
-144 113 -281 54 -137 101 -241 103 -230 2 10 15 86 30 168 15 82 31 151 37
153 5 2 70 -41 144 -96 74 -54 136 -98 137 -97 1 1 -22 60 -51 131 -29 72 -76
194 -105 273 -29 78 -54 142 -55 142 0 0 -26 -16 -56 -35z"/>
<path d="M1320 1475 c0 -38 3 -45 20 -45 17 0 20 7 20 45 0 38 -3 45 -20 45
-17 0 -20 -7 -20 -45z"/>
<path d="M6980 1500 c0 -5 5 -10 10 -10 6 0 10 5 10 10 0 6 -4 10 -10 10 -5 0
-10 -4 -10 -10z"/>
<path d="M8300 1500 c0 -5 5 -10 10 -10 6 0 10 5 10 10 0 6 -4 10 -10 10 -5 0
-10 -4 -10 -10z"/>
<path d="M1230 1450 c0 -13 7 -20 20 -20 13 0 20 7 20 20 0 13 -7 20 -20 20
-13 0 -20 -7 -20 -20z"/>
<path d="M1140 1225 l0 -155 155 0 155 0 0 155 0 155 -155 0 -155 0 0 -155z
m270 0 l0 -115 -115 0 -115 0 0 115 0 115 115 0 115 0 0 -115z"/>
<path d="M1230 1225 l0 -65 65 0 65 0 0 65 0 65 -65 0 -65 0 0 -65z"/>
<path d="M6118 935 c14 -36 29 -65 32 -65 4 0 18 29 32 65 15 36 22 65 18 65
-5 0 -18 -24 -28 -52 l-20 -53 -15 35 c-8 19 -17 43 -20 53 -4 9 -10 17 -15
17 -5 0 2 -29 16 -65z"/>
<path d="M6360 990 c0 -5 5 -10 10 -10 6 0 10 5 10 10 0 6 -4 10 -10 10 -5 0
-10 -4 -10 -10z"/>
<path d="M6413 980 c-3 -11 -10 -20 -17 -20 -8 0 -8 -2 1 -8 6 -4 13 -25 16
-47 l4 -40 1 43 c1 26 7 42 15 42 8 0 7 4 -3 10 -13 9 -12 12 4 25 18 14 18
15 2 15 -10 0 -20 -9 -23 -20z"/>
<path d="M6643 935 c0 -53 1 -61 6 -30 4 27 12 41 24 43 14 3 17 -4 17 -37 0
-23 5 -41 10 -41 12 0 13 60 1 79 -5 8 -18 12 -29 9 -17 -5 -22 0 -25 21 -2
14 -4 -5 -4 -44z"/>
<path d="M6730 990 c0 -5 5 -10 10 -10 6 0 10 5 10 10 0 6 -4 10 -10 10 -5 0
-10 -4 -10 -10z"/>
<path d="M7170 990 c0 -5 5 -10 11 -10 5 0 7 5 4 10 -3 6 -8 10 -11 10 -2 0
-4 -4 -4 -10z"/>
<path d="M7218 981 c-15 -21 -12 -111 3 -111 5 0 9 18 9 40 0 29 4 40 15 40
11 0 15 -11 15 -40 0 -22 5 -40 10 -40 6 0 10 20 10 45 0 44 -1 45 -32 45
l-33 1 24 19 c17 15 19 20 8 20 -9 0 -22 -8 -29 -19z"/>
<path d="M7530 990 c0 -5 5 -10 11 -10 5 0 7 5 4 10 -3 6 -8 10 -11 10 -2 0
-4 -4 -4 -10z"/>
<path d="M6584 975 c-6 -11 -7 -38 -4 -60 4 -30 10 -40 25 -42 11 -2 14 0 8 3
-7 3 -13 21 -13 40 0 20 5 34 13 34 8 0 9 3 1 8 -6 4 -13 14 -16 22 -4 12 -7
11 -14 -5z"/>
<path d="M7114 975 c-6 -11 -7 -38 -4 -60 4 -30 10 -40 25 -42 11 -2 14 0 8 3
-7 3 -13 21 -13 40 0 20 5 34 13 34 8 0 9 3 1 8 -6 4 -13 14 -16 22 -4 12 -7
11 -14 -5z"/>
<path d="M7471 978 c0 -9 -7 -19 -13 -21 -10 -4 -10 -6 0 -6 7 -1 12 -16 12
-41 0 -35 3 -40 23 -39 16 1 18 2 5 6 -13 3 -18 14 -18 38 0 24 5 35 18 38 15
4 15 5 0 6 -9 0 -19 9 -21 19 -4 15 -5 15 -6 0z"/>
<path d="M7874 975 c-6 -11 -7 -38 -4 -60 4 -30 10 -40 25 -42 11 -2 14 0 8 3
-7 3 -13 21 -13 40 0 20 5 34 13 34 8 0 9 3 1 8 -6 4 -13 14 -16 22 -4 12 -7
11 -14 -5z"/>
<path d="M6209 939 c-8 -16 -8 -28 0 -45 10 -23 44 -33 55 -16 3 5 -5 8 -17 8
-13 -1 -23 6 -25 17 -3 13 3 17 27 17 33 0 39 8 19 28 -19 19 -46 14 -59 -9z
m51 1 c0 -5 -9 -10 -21 -10 -11 0 -17 5 -14 10 3 6 13 10 21 10 8 0 14 -4 14
-10z"/>
<path d="M6301 910 l2 -45 6 39 c4 26 13 42 26 47 17 6 15 7 -7 6 -26 -1 -28
-4 -27 -47z"/>
<path d="M6360 915 c0 -25 5 -45 10 -45 6 0 10 20 10 45 0 25 -4 45 -10 45 -5
0 -10 -20 -10 -45z"/>
<path d="M6469 917 c13 -30 16 -49 9 -60 -5 -9 -5 -17 -1 -17 9 0 55 112 48
118 -2 2 -10 -11 -18 -29 l-15 -34 -12 33 c-7 17 -16 32 -21 32 -4 0 0 -19 10
-43z"/>
<path d="M6730 915 c0 -25 5 -45 10 -45 6 0 10 20 10 45 0 25 -4 45 -10 45 -5
0 -10 -20 -10 -45z"/>
<path d="M6774 945 c-7 -18 3 -35 22 -35 8 0 14 -7 14 -16 0 -11 -6 -15 -20
-11 -11 3 -20 1 -20 -4 0 -16 40 -10 47 7 4 11 -2 23 -17 34 -15 11 -19 19
-11 24 6 4 16 4 21 1 6 -3 10 -1 10 4 0 16 -40 13 -46 -4z"/>
<path d="M6882 948 c-27 -27 -7 -78 29 -78 10 0 21 5 25 11 4 7 0 9 -14 5 -26
-9 -45 20 -31 47 7 12 16 16 31 11 14 -4 18 -2 14 5 -9 15 -39 14 -54 -1z"/>
<path d="M6962 948 c-15 -15 -16 -50 0 -66 15 -15 45 -15 54 0 5 8 2 9 -11 5
-18 -7 -45 8 -45 24 0 5 14 9 31 9 24 0 30 4 27 18 -4 21 -39 27 -56 10z m43
-8 c4 -6 -5 -10 -20 -10 -15 0 -24 4 -20 10 3 6 12 10 20 10 8 0 17 -4 20 -10z"/>
<path d="M7041 910 l2 -45 6 39 c4 26 13 42 26 47 17 6 15 7 -7 6 -26 -1 -28
-4 -27 -47z"/>
<path d="M7173 915 c0 -27 2 -38 4 -22 2 15 2 37 0 50 -2 12 -4 0 -4 -28z"/>
<path d="M7310 946 c-26 -32 13 -97 41 -69 9 9 7 11 -8 7 -23 -6 -37 18 -27
48 4 13 12 18 25 15 10 -3 19 -1 19 4 0 14 -36 10 -50 -5z"/>
<path d="M7385 951 c-4 -7 2 -10 16 -8 31 3 35 -19 4 -27 -16 -4 -25 -13 -25
-26 0 -16 6 -20 30 -18 30 2 31 4 28 43 -2 32 -7 41 -25 43 -11 2 -24 -2 -28
-7z m45 -51 c0 -12 -28 -25 -36 -17 -9 9 6 27 22 27 8 0 14 -5 14 -10z"/>
<path d="M7533 915 c0 -27 2 -38 4 -22 2 15 2 37 0 50 -2 12 -4 0 -4 -28z"/>
<path d="M7569 939 c-8 -16 -8 -28 0 -45 18 -41 71 -25 71 21 0 44 -50 61 -71
24z m56 -8 c8 -26 -5 -53 -24 -49 -29 6 -27 68 3 68 8 0 17 -8 21 -19z"/>
<path d="M7661 910 l2 -45 6 40 c4 27 12 41 24 43 14 3 17 -4 17 -37 0 -23 5
-41 10 -41 12 0 13 60 2 78 -5 6 -20 11 -35 10 -25 -2 -27 -5 -26 -48z"/>
<path d="M7785 951 c-4 -7 2 -10 16 -8 31 3 35 -19 4 -27 -36 -9 -30 -41 8
-42 27 -1 28 1 25 40 -2 33 -7 42 -25 44 -11 2 -24 -2 -28 -7z m45 -50 c0 -14
-18 -23 -30 -16 -6 4 -8 11 -5 16 8 12 35 12 35 0z"/>
<path d="M7930 950 c0 -5 5 -10 11 -10 5 0 7 5 4 10 -3 6 -8 10 -11 10 -2 0
-4 -4 -4 -10z"/>
<path d="M7930 879 c0 -5 5 -7 10 -4 6 3 10 8 10 11 0 2 -4 4 -10 4 -5 0 -10
-5 -10 -11z"/>
<path d="M3670 645 c0 -69 17 -90 22 -27 4 52 31 50 39 -3 l7 -40 -2 45 c-1
40 -4 45 -23 44 -18 0 -23 5 -23 23 0 13 -4 23 -10 23 -6 0 -10 -28 -10 -65z"/>
<path d="M4127 698 c-38 -95 -47 -121 -39 -113 12 13 53 117 48 122 -2 2 -6
-2 -9 -9z"/>
<path d="M4177 698 c-38 -95 -47 -121 -39 -113 12 13 53 117 48 122 -2 2 -6
-2 -9 -9z"/>
<path d="M4209 688 c-15 -25 -14 -108 2 -108 5 0 9 18 9 39 0 22 5 42 13 44
10 4 10 6 0 6 -7 1 -13 7 -13 15 0 8 6 17 13 19 7 4 8 6 1 6 -7 1 -18 -9 -25
-21z"/>
<path d="M4720 686 c0 -18 -4 -23 -18 -19 -25 6 -44 -20 -40 -54 3 -24 8 -28
36 -29 l32 -1 0 64 c0 34 -2 63 -5 63 -3 0 -5 -11 -5 -24z m-5 -61 c0 -23 -4
-30 -20 -30 -21 0 -31 25 -21 51 11 28 41 12 41 -21z"/>
<path d="M5520 645 c-16 -43 -28 -61 -34 -55 -6 6 -18 10 -28 10 -10 0 -18 5
-18 10 0 6 7 10 15 10 13 0 35 28 35 45 0 3 -15 5 -32 3 -32 -3 -33 -4 -35
-56 -1 -40 3 -55 14 -59 32 -12 66 20 94 90 15 37 25 67 21 67 -4 0 -19 -29
-32 -65z m-55 4 c10 -15 -1 -23 -20 -15 -9 3 -13 10 -10 16 8 13 22 13 30 -1z
m10 -74 c0 -5 -10 -11 -22 -13 -16 -2 -23 2 -23 13 0 11 7 15 23 13 12 -2 22
-7 22 -13z"/>
<path d="M5850 700 c0 -5 5 -10 10 -10 6 0 10 5 10 10 0 6 -4 10 -10 10 -5 0
-10 -4 -10 -10z"/>
<path d="M5903 690 c-3 -11 -10 -20 -17 -20 -8 0 -8 -2 1 -8 6 -4 13 -25 16
-47 l4 -40 1 43 c2 34 6 42 21 42 16 0 21 -8 24 -42 l4 -43 1 48 c2 44 0 47
-23 47 -31 0 -33 18 -2 30 l22 9 -23 0 c-16 1 -26 -6 -29 -19z"/>
<path d="M6210 700 c0 -5 5 -10 11 -10 5 0 7 5 4 10 -3 6 -8 10 -11 10 -2 0
-4 -4 -4 -10z"/>
<path d="M6467 693 c-2 -10 -14 -43 -26 -73 -13 -30 -18 -50 -13 -45 16 15 62
135 52 135 -4 0 -10 -8 -13 -17z"/>
<path d="M6502 643 c0 -38 3 -54 5 -36 3 26 9 33 31 36 l27 4 -27 2 c-23 1
-28 6 -28 25 0 20 6 25 33 29 31 4 31 4 -5 5 l-38 2 2 -67z"/>
<path d="M6750 700 c0 -5 5 -10 11 -10 5 0 7 5 4 10 -3 6 -8 10 -11 10 -2 0
-4 -4 -4 -10z"/>
<path d="M6793 645 c0 -53 1 -61 6 -30 4 27 12 41 24 43 14 3 17 -4 17 -37 0
-23 5 -41 10 -41 12 0 13 60 1 79 -5 8 -18 12 -29 9 -17 -5 -22 0 -25 21 -2
14 -4 -5 -4 -44z"/>
<path d="M6901 676 c-23 -36 -28 -81 -10 -91 17 -11 56 4 61 23 7 24 -8 52
-27 52 -19 0 -19 9 2 32 9 10 11 18 5 18 -6 0 -20 -15 -31 -34z m34 -56 c0
-16 -6 -26 -18 -28 -19 -4 -32 20 -23 44 9 25 41 13 41 -16z"/>
<path d="M6980 691 c-23 -43 -5 -111 29 -111 27 0 45 27 45 65 0 58 -50 89
-74 46z m48 -3 c17 -17 15 -73 -4 -89 -31 -26 -57 38 -34 82 12 22 21 24 38 7z"/>
<path d="M7107 698 c-38 -95 -47 -121 -39 -113 12 13 53 117 48 122 -2 2 -6
-2 -9 -9z"/>
<path d="M7130 700 c0 -5 5 -10 10 -10 6 0 10 5 10 10 0 6 -4 10 -10 10 -5 0
-10 -4 -10 -10z"/>
<path d="M7640 700 c0 -5 5 -10 11 -10 5 0 7 5 4 10 -3 6 -8 10 -11 10 -2 0
-4 -4 -4 -10z"/>
<path d="M7970 645 c0 -37 4 -65 10 -65 6 0 10 28 10 65 0 37 -4 65 -10 65 -6
0 -10 -28 -10 -65z"/>
<path d="M8260 700 c0 -5 5 -10 11 -10 5 0 7 5 4 10 -3 6 -8 10 -11 10 -2 0
-4 -4 -4 -10z"/>
<path d="M8360 645 c0 -69 17 -90 22 -27 4 52 31 50 39 -3 l7 -40 -2 45 c-1
40 -4 45 -23 44 -18 0 -23 5 -23 23 0 13 -4 23 -10 23 -6 0 -10 -28 -10 -65z"/>
<path d="M8950 686 c0 -18 -4 -23 -18 -19 -25 6 -44 -20 -40 -54 3 -24 8 -28
36 -29 l32 -1 0 64 c0 34 -2 63 -5 63 -3 0 -5 -11 -5 -24z m-5 -61 c0 -23 -4
-30 -20 -30 -21 0 -31 25 -21 51 11 28 41 12 41 -21z"/>
<path d="M9100 686 c0 -18 -4 -23 -18 -19 -25 6 -44 -20 -40 -54 3 -24 8 -28
36 -29 l32 -1 0 64 c0 34 -2 63 -5 63 -3 0 -5 -11 -5 -24z m-5 -61 c0 -23 -4
-30 -20 -30 -21 0 -31 25 -21 51 11 28 41 12 41 -21z"/>
<path d="M10320 695 c-11 -13 -11 -21 -2 -36 7 -11 8 -19 2 -19 -5 0 -10 -11
-10 -25 0 -18 7 -26 26 -31 32 -8 60 16 49 43 -4 10 -8 32 -9 48 -1 35 -34 46
-56 20z m48 -18 c4 -21 -27 -35 -38 -17 -12 19 0 42 19 38 9 -2 17 -11 19 -21z
m0 -60 c4 -20 -25 -34 -40 -19 -15 15 -1 44 19 40 10 -2 19 -11 21 -21z"/>
<path d="M3771 688 c0 -9 -7 -19 -13 -21 -10 -4 -10 -6 0 -6 7 -1 12 -16 12
-41 0 -35 3 -40 23 -39 16 1 18 2 5 6 -13 3 -18 15 -18 39 0 30 3 34 25 34 23
0 25 -4 25 -40 0 -35 3 -40 23 -39 16 1 18 2 5 6 -13 3 -18 14 -18 38 0 24 5
35 18 38 15 4 15 5 0 6 -9 0 -19 9 -21 19 -4 16 -5 16 -6 0 -1 -12 -9 -18 -25
-18 -15 0 -26 7 -29 18 -4 15 -5 15 -6 0z"/>
<path d="M5795 684 c-6 -8 -25 -16 -42 -16 -32 -1 -33 -2 -33 -45 0 -53 18
-58 22 -5 2 29 8 38 25 40 19 3 22 -2 25 -35 2 -29 8 -38 23 -40 11 -2 14 0 8
3 -17 7 -17 74 0 74 8 0 9 3 1 8 -6 4 -13 13 -15 20 -3 9 -7 8 -14 -4z"/>
<path d="M6155 683 c-6 -10 -8 -36 -5 -58 4 -30 10 -40 25 -42 11 -2 14 0 8 3
-7 3 -13 21 -13 40 0 20 5 34 13 34 8 0 9 3 1 8 -6 4 -13 13 -15 20 -3 8 -7 7
-14 -5z"/>
<path d="M7781 688 c-1 -9 -7 -19 -13 -21 -10 -4 -10 -6 0 -6 7 -1 12 -16 12
-41 0 -35 3 -40 23 -39 16 1 18 2 5 6 -21 5 -26 73 -5 73 8 0 9 3 1 8 -6 4
-14 14 -17 22 -4 12 -6 12 -6 -2z"/>
<path d="M8311 688 c-1 -9 -7 -19 -13 -21 -10 -4 -10 -6 0 -6 7 -1 12 -16 12
-41 0 -35 3 -40 23 -39 16 1 18 2 5 6 -21 5 -26 73 -5 73 8 0 9 3 1 8 -6 4
-14 14 -17 22 -4 12 -6 12 -6 -2z"/>
<path d="M9225 683 c-6 -10 -8 -36 -5 -58 4 -30 10 -40 25 -42 11 -2 14 0 8 3
-7 3 -13 21 -13 40 0 20 5 34 13 34 8 0 9 3 1 8 -6 4 -13 13 -15 20 -3 8 -7 7
-14 -5z"/>
<path d="M9501 688 c0 -9 -7 -19 -13 -21 -10 -4 -10 -6 0 -6 7 -1 12 -16 12
-41 0 -35 3 -40 23 -39 16 1 18 2 5 6 -13 3 -18 14 -18 38 0 24 5 35 18 38 15
4 15 5 0 6 -9 0 -19 9 -21 19 -4 15 -5 15 -6 0z"/>
<path d="M9801 688 c-1 -9 -7 -19 -13 -21 -10 -4 -10 -6 0 -6 7 -1 12 -16 12
-41 0 -35 3 -40 23 -39 16 1 18 2 5 6 -21 5 -26 73 -5 73 8 0 9 3 1 8 -6 4
-14 14 -17 22 -4 12 -6 12 -6 -2z"/>
<path d="M3891 605 c1 -33 4 -51 7 -40 4 11 16 20 26 20 26 0 40 26 32 59 -5
22 -11 26 -36 24 -30 -2 -30 -3 -29 -63z m54 34 c8 -24 -16 -55 -34 -45 -12 8
-15 49 -4 59 13 14 32 7 38 -14z"/>
<path d="M3977 663 c-14 -13 -6 -30 19 -41 29 -14 22 -36 -9 -28 -14 3 -17 2
-10 -5 16 -16 47 -7 51 14 2 11 -6 20 -23 27 -29 11 -24 35 6 27 11 -3 17 -1
13 4 -6 10 -38 12 -47 2z"/>
<path d="M4050 660 c0 -5 5 -10 11 -10 5 0 7 5 4 10 -3 6 -8 10 -11 10 -2 0
-4 -4 -4 -10z"/>
<path d="M4261 620 l2 -45 6 39 c4 26 13 42 26 47 17 6 15 7 -7 6 -26 -1 -28
-4 -27 -47z"/>
<path d="M4333 663 c-7 -2 -13 -20 -13 -39 0 -28 4 -35 26 -40 14 -4 30 -2 36
4 8 8 3 11 -18 9 -20 -1 -29 3 -32 16 -3 13 3 17 27 17 33 0 39 8 19 28 -13
13 -24 14 -45 5z m42 -13 c4 -6 -5 -10 -20 -10 -15 0 -24 4 -20 10 3 6 12 10
20 10 8 0 17 -4 20 -10z"/>
<path d="M4409 649 c-8 -16 -8 -28 0 -45 10 -23 44 -33 55 -16 3 5 -5 8 -17 8
-13 -1 -23 6 -25 17 -3 13 3 17 27 17 33 0 39 8 19 28 -19 19 -46 14 -59 -9z
m51 1 c0 -5 -9 -10 -21 -10 -11 0 -17 5 -14 10 3 6 13 10 21 10 8 0 14 -4 14
-10z"/>
<path d="M4502 658 c-27 -27 -7 -78 29 -78 10 0 21 5 25 11 4 7 0 9 -14 5 -26
-9 -45 20 -31 47 7 12 16 16 31 11 14 -4 18 -2 14 5 -9 15 -39 14 -54 -1z"/>
<path d="M4583 663 c-19 -7 -16 -70 3 -77 29 -11 44 -6 55 18 20 43 -14 77
-58 59z m42 -38 c0 -23 -4 -30 -20 -30 -21 0 -31 25 -21 51 11 28 41 12 41
-21z"/>
<path d="M4762 658 c-15 -15 -16 -50 0 -66 14 -14 44 -16 52 -3 4 5 -3 7 -13
4 -13 -3 -23 2 -30 16 -11 19 -9 21 19 21 25 0 31 4 28 18 -4 21 -39 27 -56
10z m43 -8 c3 -5 -3 -10 -15 -10 -12 0 -18 5 -15 10 3 6 10 10 15 10 5 0 12
-4 15 -10z"/>
<path d="M4850 656 c-26 -32 13 -97 41 -69 9 9 7 11 -8 7 -23 -6 -37 18 -27
48 4 13 12 18 25 15 10 -3 19 -1 19 4 0 14 -36 10 -50 -5z"/>
<path d="M4925 661 c-4 -7 2 -10 16 -8 12 1 24 -4 26 -10 3 -8 -4 -13 -15 -13
-23 0 -46 -25 -37 -40 3 -5 14 -10 23 -10 14 0 14 2 3 9 -16 11 -6 31 16 31 9
0 13 -6 10 -15 -4 -8 -2 -17 4 -21 7 -4 9 10 7 38 -2 35 -7 44 -25 46 -11 2
-24 -2 -28 -7z"/>
<path d="M5000 623 c0 -53 18 -57 22 -6 4 52 28 56 28 4 0 -51 18 -54 22 -4 4
52 28 56 28 4 0 -23 5 -41 10 -41 12 0 13 59 2 76 -4 7 -29 11 -59 10 l-53 -1
0 -42z"/>
<path d="M5141 606 c1 -34 4 -51 6 -40 3 15 10 20 22 17 24 -6 43 20 39 54 -3
24 -8 28 -35 29 l-33 1 1 -61z m54 43 c12 -19 -4 -61 -23 -57 -30 6 -28 68 2
68 8 0 18 -5 21 -11z"/>
<path d="M5272 658 c-7 -7 -12 -21 -12 -33 0 -46 53 -62 71 -21 21 45 -26 87
-59 54z m43 -33 c0 -23 -4 -30 -20 -30 -21 0 -31 25 -21 51 11 28 41 12 41
-21z"/>
<path d="M5361 620 l2 -45 6 39 c4 26 13 42 26 47 17 6 15 7 -7 6 -26 -1 -28
-4 -27 -47z"/>
<path d="M5559 649 c-8 -16 -8 -28 0 -45 10 -23 44 -33 55 -16 3 5 -5 8 -17 8
-18 -1 -22 5 -22 29 0 24 4 30 22 29 12 0 20 3 17 8 -10 16 -43 8 -55 -13z"/>
<path d="M5642 658 c-15 -15 -16 -50 0 -66 14 -14 44 -16 52 -3 4 5 -3 7 -13
4 -13 -3 -23 2 -30 16 -11 19 -9 21 19 21 25 0 31 4 28 18 -4 21 -39 27 -56
10z m43 -8 c3 -5 -3 -10 -15 -10 -12 0 -18 5 -15 10 3 6 10 10 15 10 5 0 12
-4 15 -10z"/>
<path d="M5850 625 c0 -25 5 -45 10 -45 6 0 10 20 10 45 0 25 -4 45 -10 45 -5
0 -10 -20 -10 -45z"/>
<path d="M5992 658 c-27 -27 -7 -78 29 -78 10 0 21 5 25 11 4 7 0 9 -14 5 -26
-9 -45 20 -31 47 7 12 16 16 31 11 14 -4 18 -2 14 5 -9 15 -39 14 -54 -1z"/>
<path d="M6065 661 c-4 -7 2 -10 16 -8 31 3 35 -19 4 -27 -36 -9 -30 -41 8
-42 27 -1 28 1 25 40 -2 33 -7 42 -25 44 -11 2 -24 -2 -28 -7z m45 -50 c0 -14
-18 -23 -30 -16 -6 4 -8 11 -5 16 8 12 35 12 35 0z"/>
<path d="M6213 625 c0 -27 2 -38 4 -22 2 15 2 37 0 50 -2 12 -4 0 -4 -28z"/>
<path d="M6263 663 c-19 -7 -16 -70 3 -77 29 -11 44 -6 55 18 20 43 -14 77
-58 59z m42 -38 c0 -23 -4 -30 -20 -30 -21 0 -31 25 -21 51 11 28 41 12 41
-21z"/>
<path d="M6340 623 c0 -53 18 -57 22 -5 4 52 31 50 39 -3 l7 -40 -2 45 c-1 44
-2 45 -33 45 -32 1 -33 0 -33 -42z"/>
<path d="M6595 661 c-4 -7 2 -10 16 -8 31 3 35 -19 4 -27 -16 -4 -25 -13 -25
-26 0 -16 6 -20 30 -18 30 2 31 4 28 43 -2 32 -7 41 -25 43 -11 2 -24 -2 -28
-7z m45 -51 c0 -12 -28 -25 -36 -17 -9 9 6 27 22 27 8 0 14 -5 14 -10z"/>
<path d="M6674 655 c-7 -18 3 -35 22 -35 8 0 14 -7 14 -16 0 -11 -6 -15 -20
-11 -11 3 -18 1 -14 -4 8 -13 30 -11 42 4 13 15 4 31 -21 40 -10 4 -15 12 -12
18 4 6 13 8 21 5 8 -3 14 -1 14 4 0 16 -40 12 -46 -5z"/>
<path d="M6753 625 c0 -27 2 -38 4 -22 2 15 2 37 0 50 -2 12 -4 0 -4 -28z"/>
<path d="M7130 616 c0 -34 -5 -56 -12 -60 -7 -3 -4 -5 7 -3 17 2 20 11 23 60
2 35 -1 57 -8 57 -6 0 -10 -23 -10 -54z"/>
<path d="M7175 661 c-4 -7 2 -10 16 -8 31 3 35 -19 4 -27 -36 -9 -30 -41 8
-42 27 -1 28 1 25 40 -2 33 -7 42 -25 44 -11 2 -24 -2 -28 -7z m45 -50 c0 -14
-18 -23 -30 -16 -6 4 -8 11 -5 16 8 12 35 12 35 0z"/>
<path d="M7256 648 c17 -55 25 -71 33 -62 15 15 40 84 31 84 -4 0 -13 -15 -20
-32 l-12 -33 -14 33 c-16 36 -29 44 -18 10z"/>
<path d="M7345 661 c-4 -7 2 -10 16 -8 12 1 24 -4 26 -10 3 -8 -4 -13 -15 -13
-23 0 -46 -25 -37 -40 3 -5 14 -10 23 -10 14 0 14 2 3 9 -16 11 -6 31 16 31 9
0 13 -6 10 -15 -4 -8 -2 -17 4 -21 7 -4 9 10 7 38 -2 35 -7 44 -25 46 -11 2
-24 -2 -28 -7z"/>
<path d="M7424 655 c-7 -18 3 -35 22 -35 8 0 14 -7 14 -16 0 -11 -6 -15 -20
-11 -11 3 -18 1 -14 -4 8 -13 30 -11 42 4 13 15 4 31 -21 40 -10 4 -15 12 -12
18 4 6 13 8 21 5 8 -3 14 -1 14 4 0 16 -40 12 -46 -5z"/>
<path d="M7500 656 c-26 -32 13 -97 41 -69 9 9 7 11 -8 7 -23 -6 -37 18 -27
48 4 13 12 18 25 15 10 -3 19 -1 19 4 0 14 -36 10 -50 -5z"/>
<path d="M7570 623 c0 -24 5 -43 10 -43 6 0 10 16 10 35 0 22 6 37 17 44 14 7
12 9 -10 8 -25 -2 -27 -5 -27 -44z"/>
<path d="M7643 625 c0 -27 2 -38 4 -22 2 15 2 37 0 50 -2 12 -4 0 -4 -28z"/>
<path d="M7680 608 c0 -32 4 -58 10 -58 6 0 10 7 10 15 0 8 9 15 20 15 26 0
44 43 30 70 -7 13 -20 19 -40 17 -30 -2 -30 -3 -30 -59z m55 16 c0 -19 -6 -30
-17 -32 -14 -3 -18 3 -18 26 0 16 3 32 7 36 14 13 28 -1 28 -30z"/>
<path d="M7895 661 c-4 -7 2 -10 16 -8 31 3 35 -19 4 -27 -16 -4 -25 -13 -25
-26 0 -16 6 -20 30 -18 30 2 31 4 28 43 -2 32 -7 41 -25 43 -11 2 -24 -2 -28
-7z m45 -51 c0 -12 -28 -25 -36 -17 -9 9 6 27 22 27 8 0 14 -5 14 -10z"/>
<path d="M8018 658 c-2 -7 -3 -33 -3 -58 0 -43 1 -45 30 -45 23 0 31 5 33 23
3 18 -1 22 -22 22 -14 0 -26 5 -26 10 0 6 8 10 18 10 11 0 24 11 30 25 11 24
10 25 -22 25 -19 0 -36 -6 -38 -12z m42 -13 c0 -8 -7 -15 -15 -15 -8 0 -15 7
-15 15 0 8 7 15 15 15 8 0 15 -7 15 -15z m8 -67 c-3 -7 -13 -13 -23 -13 -10 0
-20 6 -22 13 -3 7 5 12 22 12 17 0 25 -5 23 -12z"/>
<path d="M8113 663 c-19 -7 -16 -70 3 -77 29 -11 44 -6 55 18 20 43 -14 77
-58 59z m42 -38 c0 -23 -4 -30 -20 -30 -21 0 -31 25 -21 51 11 28 41 12 41
-21z"/>
<path d="M8190 624 c0 -24 5 -44 10 -44 6 0 10 16 10 35 0 21 6 37 17 43 13 8
11 10 -10 10 -25 0 -27 -4 -27 -44z"/>
<path d="M8263 625 c0 -27 2 -38 4 -22 2 15 2 37 0 50 -2 12 -4 0 -4 -28z"/>
<path d="M8450 623 c0 -53 18 -57 22 -6 4 52 28 56 28 4 0 -51 18 -54 22 -4 4
52 28 56 28 4 0 -23 5 -41 10 -41 12 0 13 59 2 76 -4 7 -29 11 -59 10 l-53 -1
0 -42z"/>
<path d="M8594 655 c-7 -18 3 -35 22 -35 8 0 14 -7 14 -16 0 -11 -6 -15 -20
-11 -11 3 -20 1 -20 -4 0 -16 40 -10 47 7 4 11 -2 23 -17 34 -15 11 -19 19
-11 24 6 4 16 4 21 1 6 -3 10 -1 10 4 0 16 -40 13 -46 -4z"/>
<path d="M8725 661 c-4 -7 2 -10 16 -8 12 1 24 -4 26 -10 3 -8 -4 -13 -15 -13
-23 0 -46 -25 -37 -40 3 -5 14 -10 23 -10 14 0 14 2 3 9 -16 11 -6 31 16 31 9
0 13 -6 10 -15 -4 -8 -2 -17 4 -21 7 -4 9 10 7 38 -2 35 -7 44 -25 46 -11 2
-24 -2 -28 -7z"/>
<path d="M8800 623 c0 -53 18 -57 22 -5 4 52 31 50 39 -3 l7 -40 -2 45 c-1 44
-2 45 -33 45 -32 1 -33 0 -33 -42z"/>
<path d="M9146 661 c-4 -5 3 -7 14 -4 28 7 26 -20 -2 -32 -35 -15 -29 -40 10
-40 28 -1 32 2 32 26 0 15 -3 34 -6 43 -7 17 -39 22 -48 7z m34 -50 c0 -14
-18 -23 -31 -15 -8 4 -7 9 2 15 18 11 29 11 29 0z"/>
<path d="M9285 661 c-4 -7 2 -10 16 -8 31 3 35 -19 4 -27 -16 -4 -25 -13 -25
-26 0 -16 6 -20 30 -18 30 2 31 4 28 43 -2 32 -7 41 -25 43 -11 2 -24 -2 -28
-7z m45 -51 c0 -12 -28 -25 -36 -17 -9 9 6 27 22 27 8 0 14 -5 14 -10z"/>
<path d="M9424 655 c-7 -18 3 -35 22 -35 8 0 14 -7 14 -16 0 -11 -6 -15 -20
-11 -11 3 -20 1 -20 -4 0 -16 40 -10 47 7 4 11 -2 23 -17 34 -15 11 -19 19
-11 24 6 4 16 4 21 1 6 -3 10 -1 10 4 0 16 -40 13 -46 -4z"/>
<path d="M9561 620 l2 -45 6 39 c4 26 13 42 26 47 17 6 15 7 -7 6 -26 -1 -28
-4 -27 -47z"/>
<path d="M9624 630 c1 -44 2 -45 34 -45 32 -1 32 0 30 45 -1 43 -2 44 -5 8 -2
-21 -8 -39 -14 -39 -29 -5 -35 -1 -40 36 l-7 40 2 -45z"/>
<path d="M9720 656 c-26 -32 13 -97 41 -69 9 9 7 11 -8 7 -23 -6 -37 18 -27
48 4 13 12 18 25 15 10 -3 19 -1 19 4 0 14 -36 10 -50 -5z"/>
<path d="M9854 630 c1 -44 2 -45 34 -45 32 -1 32 0 30 45 -1 43 -2 44 -5 8 -2
-21 -8 -39 -14 -39 -29 -5 -35 -1 -40 36 l-7 40 2 -45z"/>
<path d="M9940 624 c0 -24 5 -44 10 -44 6 0 10 16 10 35 0 21 6 37 17 43 13 8
11 10 -10 10 -25 0 -27 -4 -27 -44z"/>
<path d="M10023 663 c-7 -2 -13 -20 -13 -39 0 -28 4 -35 26 -40 14 -4 30 -2
36 4 8 8 3 11 -18 9 -20 -1 -29 3 -32 16 -3 13 3 17 27 17 33 0 39 8 19 28
-13 13 -24 14 -45 5z m42 -13 c4 -6 -5 -10 -20 -10 -15 0 -24 4 -20 10 3 6 12
10 20 10 8 0 17 -4 20 -10z"/>
<path d="M10097 663 c-14 -13 -6 -30 19 -41 29 -14 22 -36 -9 -28 -14 3 -17 2
-10 -5 16 -16 47 -7 51 14 2 11 -6 20 -23 27 -29 11 -24 35 6 27 11 -3 17 -1
13 4 -6 10 -38 12 -47 2z"/>
<path d="M10226 648 c17 -55 25 -71 33 -62 15 15 40 84 31 84 -4 0 -13 -15
-20 -32 l-12 -33 -14 33 c-16 36 -29 44 -18 10z"/>
<path d="M7838 633 c6 -2 18 -2 25 0 6 3 1 5 -13 5 -14 0 -19 -2 -12 -5z"/>
<path d="M8668 633 c6 -2 18 -2 25 0 6 3 1 5 -13 5 -14 0 -19 -2 -12 -5z"/>
<path d="M8988 633 c6 -2 18 -2 25 0 6 3 1 5 -13 5 -14 0 -19 -2 -12 -5z"/>
<path d="M9368 633 c6 -2 18 -2 25 0 6 3 1 5 -13 5 -14 0 -19 -2 -12 -5z"/>
<path d="M10168 633 c6 -2 18 -2 25 0 6 3 1 5 -13 5 -14 0 -19 -2 -12 -5z"/>
<path d="M4050 589 c0 -5 5 -7 10 -4 6 3 10 8 10 11 0 2 -4 4 -10 4 -5 0 -10
-5 -10 -11z"/>
<path d="M5220 590 c0 -5 5 -10 10 -10 6 0 10 5 10 10 0 6 -4 10 -10 10 -5 0
-10 -4 -10 -10z"/>
</g>
</svg>
